<svg xmlns="http://www.w3.org/2000/svg" xmlns:xlink="http://www.w3.org/1999/xlink" x="0px" y="0px" viewBox="0 0 100 100" style="enable-background:new 0 0 100 100;" xml:space="preserve"><style type="text/css">	.ad0{fill:#BA96E0;}	.ad1{fill:#91C29B;}	.ad2{fill:#805C3C;}	.ad3{fill:#EDA35C;}	.ad4{fill:#FFFFFF;}	.ad5{fill:#E66B5A;}	.ad6{fill:#45578C;}</style><g>	<g>		<g>			<path class="ad0" d="M88.6,56.1c0,0,0,0.1,0,0.1C88.5,56.2,88.5,56.2,88.6,56.1z"></path>			<path class="ad0" d="M88,56.1c0.5-0.5,0.7-1.3,0.4-2c-0.2-0.4-0.5-0.8-0.9-1.1c0,0,0,0,0,0C88.3,53.8,88.5,55.1,88,56.1z"></path>			<path class="ad0" d="M88.1,52.2c-0.3-0.3-0.6-0.7-1-0.9c-0.3-0.1-0.7-0.1-0.9,0.2c1.6,0.3,2.8,2,2.6,3.7c0,0.3-0.1,0.6-0.2,0.9    c0,0,0,0,0,0c0,0,0,0.1,0,0.1c-0.3,0.9-1,1.6-1.9,1.9c-2.9,0.9-4.4-3.5-2.7-5.4c1-1.2,2.8-0.9,3.7,0.3c0.4,0.3,0.7,0.6,0.9,1.1    c0.3,0.7,0,1.5-0.4,2c-0.1,0.3-0.4,0.6-0.6,0.8c-0.5,0.4-1.2,0.6-1.9,0.4c-0.6-0.2-1.1-0.8-1.2-1.4c-0.3-1.3,0.6-2.8,1.9-2.8    c0.7,0,1.5,0.4,1.7,1.1c0.2,0.6,0,1.4-0.5,1.8c-0.5,0.3-1.6,0.4-1.6-0.4c0-0.6,0.8-0.9,1.1-0.5c0.2,0.2,0.6-0.1,0.4-0.4    c-0.5-0.5-1.2-0.4-1.7,0.1c-0.5,0.5-0.3,1.3,0.3,1.7c0.8,0.5,1.6,0.2,2.2-0.4c0.4-1,0.2-2.2-0.4-3.1c0,0,0,0,0,0    c-0.3-0.2-0.6-0.3-1-0.4c-0.8-0.1-1.7,0.2-2.2,0.8c-1.1,1.2-1,3.5,0.6,4.2c0.8,0.4,1.7,0.3,2.4-0.2c0.5-0.3,0.8-0.7,1-1.2    c0,0,0-0.1,0-0.1c0,0,0,0,0,0c0.1-0.3,0.1-0.6,0.1-1c0-0.7-0.2-1.4-0.6-2c-0.2-0.3-0.4-0.6-0.7-0.9c-0.1-0.1-0.7-0.7-0.8-0.5    c-0.2,0.3-0.6,0-0.4-0.3c0,0,0,0,0,0c-0.1,0-0.3-0.1-0.5-0.1c-2-0.1-3.1,1.8-3,3.6c0.1,1.6,1.1,3.4,2.8,3.6    c1.7,0.3,3.3-1.1,3.7-2.7c0.2-0.9,0-1.8-0.3-2.6C88.6,53,88.4,52.6,88.1,52.2z"></path>			<path class="ad0" d="M86.6,51.8c0.1-0.2,0.7,0.4,0.8,0.5c0.3,0.3,0.5,0.6,0.7,0.9c0.4,0.6,0.6,1.3,0.6,2c0,0.3,0,0.6-0.1,1    c0.1-0.3,0.2-0.6,0.2-0.9c0.2-1.7-1-3.4-2.6-3.7c0,0,0,0,0,0C85.9,51.8,86.4,52.1,86.6,51.8z"></path>		</g>	</g>	<g>		<g>			<path class="ad1" d="M2.4,79.5c-0.1-0.1-0.2-0.2-0.4-0.1c-0.1,0.1-0.2,0.2-0.1,0.4c0.2,0.5,0.5,1.1,0.7,1.6    c0.1,0.1,0.2,0.2,0.4,0.1c0.1-0.1,0.2-0.2,0.1-0.4C2.9,80.6,2.6,80.1,2.4,79.5z"></path>		</g>	</g>	<g>		<g>			<path class="ad1" d="M42.8,78.9c-0.1,0-0.3,0-0.3,0.2c-0.1,0.4-0.3,0.7-0.4,1.1c0,0.1,0.1,0.3,0.2,0.3c0.1,0,0.3,0,0.3-0.2    c0.1-0.4,0.3-0.7,0.4-1.1C43,79.1,42.9,78.9,42.8,78.9z"></path>		</g>	</g>	<g>		<g>			<path class="ad1" d="M37.9,77.6c-0.1,0-0.2,0.2-0.2,0.3c0.3,0.8,0.4,1.6,0.3,2.5c0,0.1,0.1,0.3,0.3,0.3c0.2,0,0.2-0.1,0.3-0.3    c0.1-0.9,0-1.8-0.3-2.6C38.1,77.7,38,77.6,37.9,77.6z"></path>		</g>	</g>	<g>		<g>			<path class="ad1" d="M82.5,79.8c-2.1,1.4-3.7,3.4-4.6,5.8c-0.1,0.3,0.4,0.5,0.5,0.1c0.8-2.2,2.3-4.2,4.3-5.5    C83.1,80.1,82.8,79.7,82.5,79.8z"></path>		</g>	</g>	<g>		<g>			<path class="ad1" d="M12.5,76.6c0-0.3-0.5-0.3-0.5,0c-0.1,1.3,0,2.5,0.3,3.7c0.1,0.3,0.6,0.2,0.5-0.1    C12.5,79,12.4,77.8,12.5,76.6z"></path>		</g>	</g>	<g>		<g>			<path class="ad1" d="M8,74.1c-0.1-0.3-0.6-0.2-0.5,0.1c0.6,2.8,1.7,5.5,3.1,8.1c0.2,0.3,0.6,0,0.4-0.3C9.7,79.6,8.6,76.9,8,74.1z    "></path>		</g>	</g>	<g>		<g>			<path class="ad1" d="M75.7,80.8c-0.4,0.5-0.9,1-1.3,1.5c-0.1,0.1-0.1,0.3,0,0.4c0.1,0.1,0.3,0.1,0.4,0c0.4-0.5,0.9-1,1.3-1.5    c0.1-0.1,0.1-0.3,0-0.4C76,80.7,75.8,80.7,75.7,80.8z"></path>		</g>	</g>	<g>		<g>			<path class="ad1" d="M73.2,76.4c-2.3,1.2-3,3.9-3.7,6.2c-0.1,0.3,0.4,0.5,0.5,0.1c0.6-2.1,1.3-4.8,3.5-5.9    C73.8,76.7,73.5,76.3,73.2,76.4z"></path>		</g>	</g>	<g>		<g>			<path class="ad2" d="M27,84c0.9-0.1,1.8-0.5,2.7-0.3c0-0.2,0-0.3,0-0.5c-0.9,0.2-1.9,0.3-2.8,0.5c-0.4,0.1-0.9,0.2-1.3,0.2    c-0.1,0-0.2,0-0.3,0C25.9,84,26.5,84.1,27,84z"></path>			<path class="ad2" d="M29.9,83.2c-0.9-0.1-1.7,0.1-2.6,0.3c-1,0.1-1.9-0.1-2.9-0.2c-0.3,0-0.5,0.4-0.2,0.5c0.1,0,0.1,0,0.2,0    c0,0,0.1,0,0.1,0c0.3,0,0.5,0.1,0.8,0.1c0.1,0,0.2,0,0.3,0c0.4-0.1,0.9-0.2,1.3-0.2c0.9-0.2,1.9-0.3,2.8-0.5c0,0.2,0,0.3,0,0.5    c-0.9-0.1-1.8,0.2-2.7,0.3c-0.6,0.1-1.1,0-1.7-0.1c-0.3,0-0.5,0-0.8-0.1c-0.1,0-0.2,0-0.3-0.1c0,0,0,0,0,0    c-0.2,0.1-0.2,0.3,0,0.5c0.8,0.4,1.7,0.2,2.6,0c1-0.2,2.1-0.4,3.1-0.5C30.1,83.6,30.1,83.2,29.9,83.2z"></path>			<path class="ad2" d="M24.6,83.8c0,0-0.1,0-0.1,0c-0.1,0-0.2,0-0.2,0c0,0,0,0,0,0C24.4,83.8,24.5,83.8,24.6,83.8z"></path>		</g>	</g>	<g>		<g>			<path class="ad2" d="M57.7,84.3c0.5-0.1,0.9-0.3,1.4-0.4c-0.7,0.1-1.5,0.2-2.2,0c-0.3-0.1-0.5,0.4-0.1,0.5    c0.3,0.1,0.5,0.1,0.8,0.1C57.6,84.4,57.6,84.4,57.7,84.3z"></path>			<path class="ad2" d="M59.2,83.9c1-0.2,2-0.6,3-0.9C61.2,83.3,60.2,83.6,59.2,83.9z"></path>			<path class="ad2" d="M62.3,83.5c-1,0.3-2,0.6-3,0.9C60.4,84.2,61.3,83.8,62.3,83.5z"></path>			<path class="ad2" d="M57.6,84.5c0,0.2,0.1,0.4,0.3,0.3c0.5-0.2,1-0.3,1.5-0.5C58.8,84.5,58.2,84.6,57.6,84.5z"></path>			<path class="ad2" d="M59.2,83.9c-0.5,0.1-0.9,0.3-1.4,0.4c-0.1,0-0.1,0.1-0.2,0.2c0.6,0,1.2,0,1.8-0.1c1-0.3,2-0.6,3-0.9    c0-0.2-0.1-0.3-0.1-0.5C61.2,83.3,60.2,83.7,59.2,83.9z"></path>			<path class="ad2" d="M62.2,83c0,0.2,0.1,0.3,0.1,0.5C62.6,83.4,62.5,82.9,62.2,83z"></path>		</g>	</g>	<g>		<g>			<path class="ad2" d="M51.5,84.8c-0.2,0.1-0.5,0.1-0.7,0.1c0.6,0,1.2,0,1.7-0.3c0,0,0,0,0,0c-0.3,0-0.6,0-0.9,0    C51.6,84.7,51.6,84.8,51.5,84.8z"></path>			<path class="ad2" d="M47.5,84.8c-0.1,0-0.2-0.1-0.2-0.2c-0.1,0.1-0.2,0.3-0.3,0.4c0.4,0.1,0.8,0.1,1.2,0.1    c-0.2,0-0.4-0.1-0.6-0.2C47.6,85,47.5,84.9,47.5,84.8z"></path>			<path class="ad2" d="M48.8,85c-0.3,0-0.9,0.1-1.3-0.1c0,0.1,0.1,0.1,0.1,0.1c0.2,0.1,0.4,0.1,0.6,0.2c0.9,0,1.7,0,2.6-0.2    c0,0,0,0-0.1,0C50.1,85,49.4,85,48.8,85z"></path>			<path class="ad2" d="M47.8,84.5c-0.1,0-0.2,0-0.3,0.1c0.3,0,0.5,0.1,0.8,0.1C48.1,84.6,48,84.5,47.8,84.5z"></path>			<path class="ad2" d="M52.9,85c0.1-0.1,0.2-0.1,0.3-0.2c-0.2-0.1-0.4-0.1-0.6-0.1c0,0,0,0,0,0C52,85,51.4,85,50.8,85    c-0.9,0.1-1.7,0.2-2.6,0.2c1.5,0.3,3-0.2,4.5,0.1C52.8,85.2,52.8,85.1,52.9,85z"></path>			<path class="ad2" d="M53.1,84.6c-0.2-0.1-0.4,0-0.6,0.1c0.2,0,0.4,0.1,0.6,0.1c-0.1,0.1-0.2,0.1-0.3,0.2c0,0.1-0.1,0.2-0.2,0.2    c0.1,0,0.3,0.1,0.4,0.1c0.1,0,0.3,0,0.3-0.2C53.4,84.9,53.3,84.7,53.1,84.6z"></path>			<path class="ad2" d="M48.2,85.1c-0.4,0-0.8-0.1-1.2-0.1c0.1-0.1,0.2-0.3,0.3-0.4c0.1,0.1,0.1,0.1,0.2,0.2c0-0.1,0-0.2,0-0.3    c-0.1,0-0.3,0-0.4,0c-0.2,0-0.4,0.2-0.3,0.4c0.2,0.4,0.6,0.5,1,0.5c0.6,0.1,1.2,0,1.8,0c0.6,0,1.2,0,1.8,0c0.3,0,0.5,0,0.8-0.1    c0.1,0,0.2-0.1,0.3-0.1c0,0,0.1,0,0.1-0.1C51.2,85,49.7,85.5,48.2,85.1z"></path>			<path class="ad2" d="M47.5,84.8c0.4,0.2,0.9,0.1,1.3,0.1c0.7,0,1.3,0,2,0c0,0,0,0,0.1,0c0.2,0,0.5-0.1,0.7-0.1    c0.1,0,0.2-0.1,0.2-0.2c-1.1,0-2.3,0.2-3.4,0c-0.3,0-0.5,0-0.8-0.1C47.5,84.6,47.5,84.8,47.5,84.8z"></path>			<path class="ad2" d="M51.7,84.6c0-0.2-0.1-0.4-0.3-0.3c-1,0.2-2,0.3-3,0.3C49.4,84.9,50.5,84.7,51.7,84.6z"></path>		</g>	</g>	<g>		<g>			<path class="ad3" d="M74.5,38.9c-1.1-0.7-2.2-1.5-3-2.6c-0.8-1-1.8-2.4-1.3-3.8c0.1-0.3-0.4-0.4-0.5-0.1c-0.5,1.4,0.4,3,1.2,4.1    c0.9,1.2,2,2.1,3.3,2.9C74.5,39.5,74.7,39.1,74.5,38.9z"></path>		</g>	</g>	<g>		<g>			<path class="ad3" d="M74.2,39.1c-2.7-1-4.5-3.7-4.5-6.5c0-0.3-0.5-0.3-0.5,0c0,3.1,2,6,4.9,7C74.4,39.7,74.5,39.2,74.2,39.1z"></path>		</g>	</g>	<g>		<g>			<path class="ad3" d="M74,39c-1.3-0.1-2.4-0.9-3.2-1.9c-0.8-1.2-1.2-2.6-1.5-4c-0.1-0.3-0.6-0.2-0.5,0.1c0.3,1.5,0.7,3.1,1.7,4.4    c0.8,1.1,2.1,1.9,3.5,1.9C74.4,39.5,74.4,39,74,39z"></path>		</g>	</g>	<g>		<g>			<path class="ad2" d="M72.5,24.4c0.1-0.2,0.2-0.4,0.3-0.6c0,0-0.1,0.1-0.1,0.1c-0.1,0.1-0.3,0.5-0.4,0.5c0.1,0.1,0.1,0.2,0.2,0.3    c0,0,0-0.1,0-0.1C72.5,24.6,72.4,24.5,72.5,24.4z"></path>			<path class="ad2" d="M72.5,24.6c0,0,0,0.1,0,0.1c-0.1-0.1-0.1-0.2-0.2-0.3c0.1,0,0.3-0.4,0.4-0.5c0,0,0.1-0.1,0.1-0.1    c0,0,0-0.1,0.1-0.1c0,0,0,0,0,0c0.4-0.5,1-0.8,1.6-0.9c0.2,0,0.3,0,0.5,0c-0.4-0.1-0.9-0.1-1.3,0c-0.9,0.2-1.6,1-1.7,1.9    c0,0.1,0,0.3,0.2,0.3c0.3,0,0.4-0.1,0.6-0.2C72.7,24.7,72.6,24.7,72.5,24.6z"></path>			<path class="ad2" d="M74.6,22.7c-0.6,0.1-1.2,0.4-1.6,0.9c0.1-0.1,0.2-0.2,0.2-0.2c0.4-0.3,0.8-0.5,1.3-0.6    c0.6-0.1,1.2,0.2,1.5,0.7c0,0,0-0.1,0-0.1c0.1,0,0.2,0,0.3,0.1c-0.3-0.4-0.7-0.6-1.2-0.8C74.9,22.7,74.7,22.7,74.6,22.7z"></path>			<path class="ad2" d="M72.9,23.7C72.9,23.7,72.9,23.7,72.9,23.7C72.9,23.7,72.9,23.7,72.9,23.7z"></path>			<path class="ad2" d="M73.3,24c0,0-0.1,0.1-0.1,0.1C73.2,24.1,73.3,24,73.3,24z"></path>			<path class="ad2" d="M72.8,23.8C72.8,23.7,72.9,23.7,72.8,23.8C72.9,23.7,72.8,23.7,72.8,23.8z"></path>			<path class="ad2" d="M74.4,22.8c-0.5,0-0.9,0.3-1.3,0.6c-0.1,0.1-0.2,0.2-0.2,0.2c0,0,0,0,0,0c0,0,0,0.1-0.1,0.1    c-0.1,0.2-0.2,0.4-0.3,0.6c0,0.1,0,0.2,0.1,0.2c0.2-0.7,0.7-1.2,1.3-1.4c0.4-0.1,0.8-0.1,1.1,0c0.1,0,0.2,0,0.2,0    c0.2,0,0.3,0.1,0.5,0.1c0.1,0,0.1,0,0.2,0.1c0,0,0,0.1,0,0.1c0,0,0,0,0,0c0,0,0,0,0,0C75.6,23,75,22.8,74.4,22.8z"></path>			<path class="ad2" d="M75.9,23.8c-0.2-0.3-0.5-0.5-0.9-0.6c-0.2,0-0.4,0-0.7,0.1c-0.4,0.1-0.7,0.3-1,0.6c0.2-0.2,0.4-0.4,0.7-0.5    c0.3-0.1,0.7-0.1,1,0c0.3,0.1,0.6,0.4,0.6,0.7c0,0.1,0.1,0.3,0.3,0.3c0.1,0,0.3-0.1,0.3-0.3c0-0.1,0-0.2-0.1-0.3c0,0,0,0,0,0    C76,23.9,75.9,23.9,75.9,23.8z"></path>			<path class="ad2" d="M72.8,24.7c0.1,0,0.2-0.1,0.2-0.2c0.1-0.1,0.1-0.3,0.2-0.4c0,0,0,0.1-0.1,0.1C73,24.4,72.9,24.5,72.8,24.7z"></path>			<path class="ad2" d="M75.9,22.9c-0.3-0.1-0.6-0.2-0.9-0.2c0.5,0.1,0.9,0.4,1.2,0.8c-0.1,0-0.2,0-0.3-0.1c0,0.1,0,0.1,0,0.1    c0.1,0.1,0.2,0.2,0.2,0.4c0.2-0.1,0.3-0.3,0.3-0.5C76.3,23.2,76.2,23,75.9,22.9z"></path>			<path class="ad2" d="M75.9,23.5C75.9,23.5,75.9,23.5,75.9,23.5C75.9,23.5,75.9,23.4,75.9,23.5c-0.1-0.1-0.2-0.2-0.2-0.2    c-0.1-0.1-0.3-0.1-0.5-0.1c-0.1,0-0.2,0-0.2,0c0.3,0.1,0.7,0.3,0.9,0.6c0.1,0.1,0.2,0.1,0.3,0.1c0,0,0,0,0,0    C76.1,23.8,76,23.6,75.9,23.5C75.9,23.5,75.9,23.5,75.9,23.5z"></path>			<path class="ad2" d="M74.3,23.3c0.2-0.1,0.4-0.1,0.7-0.1c-0.3-0.1-0.7-0.1-1.1,0c-0.7,0.2-1.2,0.8-1.3,1.4    c0.1,0.1,0.2,0.1,0.2,0.1c0.1-0.1,0.2-0.3,0.3-0.5c0,0,0-0.1,0.1-0.1c0,0,0.1-0.1,0.1-0.1c0,0,0,0,0.1-0.1    C73.6,23.7,74,23.4,74.3,23.3z"></path>			<path class="ad2" d="M73.3,24C73.3,24,73.3,24,73.3,24C73.3,24,73.3,24,73.3,24z"></path>		</g>	</g>	<g>		<g>			<path class="ad2" d="M48.9,37.2c0-0.2,0-0.3-0.1-0.5c-0.4,0.1-0.7,0.3-0.9,0.6C48.3,37.2,48.6,37.2,48.9,37.2z"></path>		</g>	</g>	<g>		<g>			<path class="ad3" d="M54.6,18.9C54.6,18.9,54.6,18.9,54.6,18.9C54.6,18.9,54.6,18.9,54.6,18.9z"></path>			<path class="ad3" d="M54.1,18.6C54.1,18.6,54.1,18.6,54.1,18.6C54.1,18.6,54.1,18.6,54.1,18.6z"></path>			<path class="ad3" d="M53.3,17.5C53.3,17.5,53.3,17.5,53.3,17.5C53.3,17.5,53.3,17.5,53.3,17.5z"></path>			<path class="ad3" d="M54.8,18.9c0,0-0.1,0-0.1-0.1c0,0,0,0,0,0c0,0,0,0,0,0c0,0,0,0,0,0c0,0,0,0-0.1,0c-0.1,0-0.2-0.1-0.3-0.1    c0,0-0.1-0.1-0.1-0.1c0,0,0,0,0,0c0,0,0,0,0,0c0,0,0,0,0,0c0,0,0,0,0,0c-0.1-0.1-0.2-0.1-0.2-0.2c-0.2-0.2-0.2-0.3-0.3-0.4    c-0.1-0.1-0.1-0.2-0.2-0.3c0,0,0,0,0-0.1c0,0,0,0,0,0c0,0,0,0,0,0c0,0,0,0,0,0c0,0,0-0.1-0.1-0.1c0-0.1-0.2-0.2-0.3-0.2    c-0.1,0-0.2,0.2-0.2,0.3c0.3,0.9,1,1.6,1.9,2c0.1,0,0.3-0.1,0.3-0.2C55,19.1,54.9,19,54.8,18.9z"></path>		</g>	</g>	<g>		<g>			<path class="ad2" d="M63.4,25.3c-0.2,0.2-0.5,0.4-0.7,0.6c-0.6,0.6-1,1.2-1.4,1.9c0.2,0,0.3,0.1,0.5,0.1c0-0.9,0.6-1.7,1.4-2    c0.1,0,0.3-0.1,0.4-0.1c0.3-0.2,0.6-0.4,0.9-0.4C64.1,25.3,63.8,25.2,63.4,25.3z"></path>			<path class="ad2" d="M61.8,27.9c-0.2,0-0.3-0.1-0.5-0.1c0.4-0.7,0.9-1.3,1.4-1.9c0.2-0.2,0.4-0.4,0.7-0.6c-0.1,0-0.2,0-0.4,0.1    c-1,0.3-1.8,1.4-1.8,2.5c0,0.3,0.4,0.4,0.5,0.1c0.4-0.6,0.8-1.2,1.3-1.7c0.2-0.2,0.3-0.3,0.5-0.5c-0.1,0-0.3,0-0.4,0.1    C62.4,26.2,61.8,27,61.8,27.9z"></path>			<path class="ad2" d="M65.5,25.9c-0.3-0.2-0.6-0.4-1-0.5c-0.3,0.1-0.6,0.2-0.9,0.4c0.7-0.1,1.5,0.2,1.9,0.8    c0.1,0.1,0.3,0.1,0.4,0.1c-0.1-0.1-0.1-0.3-0.2-0.4C65.6,26.1,65.5,26,65.5,25.9z"></path>			<path class="ad2" d="M65.9,26.3c-0.1-0.2-0.3-0.3-0.5-0.5c0.1,0.1,0.1,0.2,0.2,0.4c0.1,0.1,0.1,0.3,0.2,0.4    C66,26.6,66,26.4,65.9,26.3z"></path>			<path class="ad2" d="M66.7,26.9c-0.5-0.2-0.6-0.9-0.8-1.3c-0.3-0.5-0.8-0.8-1.4-0.7c-0.4,0.1-0.7,0.2-1.1,0.5    c0.4-0.1,0.7,0,1.1,0.1c0,0,0.1,0,0.1,0c0.4,0,0.7,0.2,0.9,0.5c0.2,0.1,0.3,0.3,0.5,0.5c0.1,0.1,0,0.3-0.1,0.3    c0.1,0.3,0.3,0.5,0.6,0.7C66.8,27.5,67,27,66.7,26.9z"></path>		</g>	</g>	<g>		<g>			<path class="ad2" d="M58,47.7C58,47.7,58,47.7,58,47.7C57.9,47.7,58,47.7,58,47.7z"></path>			<path class="ad2" d="M57.9,47.6C57.9,47.7,57.9,47.6,57.9,47.6C57.9,47.6,57.9,47.6,57.9,47.6z"></path>			<path class="ad2" d="M57.7,47.4C57.7,47.4,57.7,47.3,57.7,47.4C57.7,47.4,57.7,47.4,57.7,47.4z"></path>			<path class="ad2" d="M57.7,47.3C57.7,47.3,57.7,47.3,57.7,47.3C57.7,47.2,57.7,47.3,57.7,47.3z"></path>			<path class="ad2" d="M57.7,47.2C57.7,47.2,57.7,47.2,57.7,47.2C57.7,47.2,57.8,47.1,57.7,47.2z"></path>			<path class="ad2" d="M58.1,47.7C58.1,47.7,58.1,47.7,58.1,47.7C58,47.7,58.1,47.7,58.1,47.7z"></path>			<path class="ad2" d="M57.8,47.6C57.8,47.6,57.8,47.6,57.8,47.6C57.8,47.6,57.8,47.6,57.8,47.6z"></path>			<path class="ad2" d="M57.8,47.5C57.8,47.5,57.8,47.5,57.8,47.5C57.8,47.5,57.8,47.5,57.8,47.5C57.7,47.4,57.8,47.5,57.8,47.5z"></path>			<path class="ad2" d="M58.3,47.6C58.3,47.6,58.3,47.6,58.3,47.6C58.3,47.7,58.3,47.6,58.3,47.6z"></path>			<path class="ad2" d="M58.5,47.1C58.5,47,58.5,47.1,58.5,47.1C58.5,47.1,58.5,47.1,58.5,47.1z"></path>			<path class="ad2" d="M58.4,47C58.4,47,58.4,47,58.4,47C58.4,47,58.4,47,58.4,47z"></path>			<path class="ad2" d="M57.3,47.7C57.3,47.7,57.3,47.7,57.3,47.7C57.3,47.7,57.3,47.7,57.3,47.7C57.3,47.7,57.3,47.7,57.3,47.7z"></path>			<path class="ad2" d="M58.1,47.7C58.1,47.7,58.1,47.7,58.1,47.7C58.1,47.7,58.1,47.7,58.1,47.7C58.1,47.7,58.1,47.7,58.1,47.7z"></path>			<path class="ad2" d="M57.1,47.9C57.1,47.9,57.1,47.9,57.1,47.9C57.1,47.9,57.1,47.9,57.1,47.9z"></path>			<path class="ad2" d="M57.1,47.9C57.1,47.9,57.1,47.9,57.1,47.9C57.1,47.9,57.1,47.9,57.1,47.9C57.1,47.9,57.1,47.9,57.1,47.9    C57.1,47.9,57.1,47.9,57.1,47.9c0.1,0.1,0.2,0.1,0.3,0.1c0,0,0,0,0-0.1c0,0,0-0.1,0,0c0,0,0,0,0,0c0,0,0,0,0,0    C57.3,47.9,57.2,47.9,57.1,47.9C57.2,47.9,57.2,47.9,57.1,47.9z"></path>			<polygon class="ad2" points="58.4,47.6 58.4,47.6 58.4,47.6    "></polygon>			<path class="ad2" d="M58.2,47.7C58.2,47.7,58.2,47.7,58.2,47.7C58.2,47.7,58.2,47.7,58.2,47.7C58.2,47.7,58.2,47.7,58.2,47.7z"></path>			<path class="ad2" d="M58.5,47.4C58.5,47.4,58.5,47.4,58.5,47.4C58.4,47.4,58.5,47.4,58.5,47.4z"></path>			<path class="ad2" d="M58.5,47.2C58.5,47.1,58.5,47.1,58.5,47.2C58.5,47.2,58.5,47.2,58.5,47.2z"></path>			<path class="ad2" d="M57.8,47.1C57.8,47.1,57.8,47.1,57.8,47.1C57.8,47.1,57.8,47.1,57.8,47.1z"></path>			<path class="ad2" d="M57.3,47.5C57.3,47.4,57.3,47.4,57.3,47.5C57.3,47.4,57.3,47.4,57.3,47.5C57.3,47.4,57.3,47.4,57.3,47.5    C57.3,47.4,57.3,47.4,57.3,47.5C57.3,47.4,57.3,47.4,57.3,47.5c0-0.1,0-0.1,0-0.2c0,0,0,0,0-0.1c0,0,0,0,0,0c0,0,0,0,0,0    c0,0,0,0,0,0c0,0,0,0,0,0c0,0,0.1-0.1,0.1-0.1c0,0,0,0,0,0c0,0,0,0,0,0c0,0,0,0,0,0c0,0,0,0,0.1-0.1c0,0,0.1,0,0,0c0,0,0,0,0.1,0    c0,0,0,0,0.1,0c0,0,0,0,0,0c0,0,0,0,0,0c0,0,0,0,0,0c0,0,0,0,0,0c0,0,0.1,0,0.1,0c0,0,0,0,0.1,0c0,0,0,0,0,0c0,0,0,0,0,0    c0,0,0,0,0,0c0,0,0,0,0,0c0,0,0.1,0,0.1,0c0,0,0,0,0,0c0,0,0,0,0,0c0,0,0,0,0,0c0,0,0,0,0,0c0,0,0,0,0.1,0c0,0,0,0,0.1,0    c0,0,0,0,0,0c0,0,0,0,0,0c0,0,0,0,0,0c0,0,0,0,0,0c0,0,0.1,0,0.1,0.1c0,0,0,0,0,0c0,0,0,0,0,0c0,0,0,0,0,0c0,0,0,0,0,0    c0,0,0,0,0,0c0,0,0,0,0,0c0,0,0,0,0,0c0.1,0,0.2-0.1,0.2-0.2c0-0.1,0-0.3-0.2-0.3C57.7,46.3,57.1,46.8,57.3,47.5    c0,0.1,0,0.1,0,0.1C57.2,47.6,57.2,47.5,57.3,47.5C57.2,47.5,57.2,47.5,57.3,47.5z"></path>			<path class="ad2" d="M58.3,46.9C58.3,46.9,58.3,46.9,58.3,46.9C58.3,46.9,58.3,46.9,58.3,46.9z"></path>			<path class="ad2" d="M58.3,46.9C58.3,46.9,58.3,46.9,58.3,46.9C58.3,46.9,58.3,46.9,58.3,46.9C58.3,46.9,58.3,46.9,58.3,46.9z"></path>			<path class="ad2" d="M58.2,46.8C58.2,46.8,58.2,46.8,58.2,46.8C58.2,46.8,58.2,46.8,58.2,46.8C58.2,46.8,58.2,46.8,58.2,46.8z"></path>			<path class="ad2" d="M57.6,47.7C57.6,47.6,57.6,47.6,57.6,47.7c0.1-0.1,0.1-0.1,0.2-0.1c0,0,0,0,0,0c0,0,0,0,0,0c0,0,0,0,0,0    c0,0,0,0,0,0c0,0,0,0,0,0c0,0,0,0,0,0c0,0,0,0,0-0.1c0,0,0,0,0,0c0,0,0,0,0,0c0,0,0,0,0-0.1c0,0,0,0,0,0c0,0,0,0,0,0c0,0,0,0,0,0    c0,0,0,0,0,0c0,0,0-0.1,0-0.1c0,0,0,0,0,0c0,0,0,0,0,0c0,0,0,0,0,0c0,0,0,0,0,0c0,0,0,0,0,0c0,0,0,0,0,0c0,0,0,0,0,0c0,0,0,0,0,0    c0,0,0,0,0,0c0,0,0,0,0,0c0,0,0,0,0,0c0,0,0,0,0,0c0,0,0,0,0.1,0c0,0,0,0,0,0c0,0,0,0,0,0c0,0,0,0,0,0c0,0,0,0,0,0    c0,0,0.1,0,0.1,0c0,0,0,0,0,0c0,0,0,0,0,0c0,0,0,0,0,0c0,0,0,0,0,0c0,0,0.1,0,0.1,0c0,0,0,0,0,0c0,0,0,0,0,0c0,0,0.1,0,0.1,0    c0,0,0,0,0,0c0,0,0,0,0,0c0,0-0.1,0-0.1-0.1c0,0,0,0,0,0c0,0,0,0-0.1,0c0,0,0,0-0.1,0c0,0,0,0,0,0c0,0,0,0,0,0c0,0-0.1,0-0.1,0    c0,0,0,0,0,0c0,0,0,0,0,0c0,0,0,0-0.1,0c0,0-0.1,0-0.1,0c0,0,0,0,0,0c0,0,0,0,0,0c0,0,0,0-0.1,0c0,0,0,0-0.1,0c0,0,0,0,0,0    c0,0,0,0-0.1,0.1c0,0,0,0,0,0c0,0-0.1,0.1-0.1,0.1c0,0,0,0,0,0c0,0,0,0,0,0c0,0,0,0,0,0.1c0,0.1,0,0.1,0,0.2c0,0,0,0,0,0    c0,0,0,0,0,0c0,0,0,0,0,0c0,0,0,0.1,0,0.1c0,0,0,0,0,0.1c0,0.1,0.1,0.2,0.1,0.2C57.4,47.8,57.5,47.7,57.6,47.7    C57.6,47.7,57.6,47.7,57.6,47.7z"></path>			<path class="ad2" d="M57.2,46.5c-0.6,0.4-0.6,1.3-0.3,1.8c0.1,0.1,0.2,0.2,0.3,0.1c0.2-0.1,0.4-0.2,0.5-0.3    c-0.2-0.1-0.3-0.2-0.4-0.3c0,0,0,0,0,0c0,0,0,0,0,0c0,0,0,0,0,0c0,0,0,0.1,0,0c0,0,0,0,0,0c0,0,0,0.1,0,0.1    c-0.1,0-0.2-0.1-0.3-0.1c0,0,0,0,0,0c0,0,0,0,0,0c0,0,0,0,0.1,0c0,0,0.1,0,0.1-0.1c0,0,0,0,0,0c0,0,0,0,0-0.1c0,0,0,0,0,0    c0,0,0,0,0,0c0,0,0,0,0,0c0,0,0,0,0,0c0,0,0-0.1,0-0.1c0,0,0,0,0-0.1c-0.2-0.7,0.5-1.2,1.1-1.1c0.1,0,0.2,0.2,0.2,0.3    c0,0.1-0.1,0.2-0.2,0.2c0,0,0,0,0,0c0,0,0,0,0,0c0,0,0,0,0,0c0,0,0,0,0,0c0,0,0,0,0,0c0,0,0,0,0,0c0,0,0,0,0,0c0,0,0,0,0,0    c0,0,0,0,0,0c0,0,0,0,0,0c0,0,0,0,0,0c0,0,0,0,0,0c0,0,0,0,0,0c0,0,0,0,0,0.1c0,0,0,0,0,0c0,0,0,0,0,0c0,0,0,0.1,0,0.1    c0,0,0,0,0,0c0,0,0,0,0,0c0,0,0,0,0,0c0,0,0,0,0,0c0,0,0,0,0,0.1c0,0,0,0,0,0.1c0,0,0,0,0,0c-0.2,0.2-0.4,0.4-0.6,0.6    c0,0,0,0,0.1,0c0.3,0.1,0.6,0,0.8-0.2c0.4-0.4,0.5-1.1,0.1-1.5C58.3,46.2,57.7,46.2,57.2,46.5z"></path>			<path class="ad2" d="M58.4,47.6C58.4,47.6,58.4,47.6,58.4,47.6C58.4,47.6,58.4,47.6,58.4,47.6C58.4,47.6,58.4,47.6,58.4,47.6    C58.4,47.5,58.4,47.5,58.4,47.6C58.4,47.6,58.4,47.6,58.4,47.6C58.3,47.6,58.3,47.6,58.4,47.6C58.3,47.6,58.3,47.6,58.4,47.6    C58.3,47.6,58.3,47.6,58.4,47.6C58.3,47.6,58.3,47.6,58.4,47.6C58.3,47.6,58.3,47.7,58.4,47.6c-0.1,0.1-0.1,0.1-0.2,0.1    c0,0,0,0,0,0c0,0,0,0,0,0c0,0,0,0,0,0c0,0,0,0,0,0c0,0,0,0,0,0c0,0,0,0,0,0c0,0,0,0,0,0c0,0,0,0,0,0c0,0,0,0,0,0c0,0,0,0,0,0    c0,0,0,0,0,0c0,0,0,0,0,0c0,0,0,0,0,0c0,0,0,0,0,0c0,0-0.1,0,0,0c0,0,0,0-0.1,0c0,0,0,0,0,0c0,0,0,0,0,0c0,0,0,0,0,0c0,0,0,0,0,0    c0,0,0,0-0.1,0c0,0,0,0,0,0c0,0,0,0,0,0c0,0,0,0,0,0c0,0,0,0,0,0c0,0,0,0-0.1-0.1c0,0,0,0,0,0c0,0,0,0,0,0c0,0,0,0,0,0    c0,0,0,0,0,0c0,0,0,0,0-0.1c0,0,0,0,0,0c0,0-0.1,0.1-0.1,0.1c0,0,0,0-0.1,0c0,0,0,0,0,0c0,0,0,0,0,0c0,0,0,0,0,0c0,0,0,0,0,0    c-0.1,0-0.1,0.1-0.2,0.1c0.1,0.2,0.2,0.3,0.4,0.3C58,48,58.2,47.8,58.4,47.6z"></path>			<path class="ad2" d="M58,46.8C58,46.8,58,46.8,58,46.8C58.1,46.8,58.1,46.8,58,46.8z"></path>			<path class="ad2" d="M57.6,47.7C57.6,47.7,57.6,47.7,57.6,47.7C57.6,47.7,57.6,47.7,57.6,47.7C57.6,47.7,57.6,47.7,57.6,47.7z"></path>			<path class="ad2" d="M58.4,47.5C58.4,47.5,58.4,47.5,58.4,47.5C58.4,47.5,58.4,47.5,58.4,47.5z"></path>			<path class="ad2" d="M58.3,47.2c-0.1-0.1-0.3,0-0.4,0.1c0,0,0,0,0,0c0,0,0,0,0,0.1c0,0,0,0.1-0.1,0.1c0,0,0,0,0,0.1c0,0,0,0,0,0    c0,0,0,0,0,0c0,0,0,0,0.1,0.1c0,0,0,0,0,0c0,0,0,0,0,0c0,0,0,0,0.1,0c0,0,0,0,0,0c0,0,0,0,0,0c0,0,0,0,0.1,0c0,0,0,0,0,0    c0,0,0,0,0,0c0,0,0,0,0,0c0,0,0,0,0,0c0,0,0,0,0,0c0,0,0,0,0,0c0,0,0,0,0,0c0,0,0.1,0,0.1-0.1c0,0,0,0,0,0c0,0,0,0,0,0    c0,0,0,0,0,0c0,0,0,0,0,0C58.4,47.4,58.4,47.3,58.3,47.2z"></path>			<path class="ad2" d="M58,46.9C58,46.9,58,47,58,46.9L58,46.9z"></path>			<path class="ad2" d="M57.3,47.4C57.3,47.4,57.3,47.4,57.3,47.4C57.3,47.4,57.3,47.4,57.3,47.4z"></path>			<path class="ad2" d="M58.1,46.9C58.1,46.9,58.1,46.9,58.1,46.9L58.1,46.9z"></path>			<path class="ad2" d="M57.3,47.2C57.3,47.2,57.3,47.2,57.3,47.2C57.3,47.1,57.3,47.2,57.3,47.2z"></path>			<path class="ad2" d="M57.4,47C57.4,47,57.4,47,57.4,47C57.4,47,57.4,47,57.4,47z"></path>			<polygon class="ad2" points="57.3,47.4 57.3,47.4 57.3,47.4    "></polygon>			<path class="ad2" d="M57.7,46.8C57.7,46.8,57.7,46.8,57.7,46.8C57.7,46.8,57.6,46.8,57.7,46.8z"></path>			<path class="ad2" d="M57.8,46.8C57.9,46.8,57.9,46.8,57.8,46.8C57.8,46.8,57.8,46.8,57.8,46.8z"></path>		</g>	</g>	<g>		<g>			<path class="ad2" d="M49.9,59.5c0-0.1-0.1-0.2-0.1-0.3c0,0.1,0,0.1-0.1,0.2c0,0,0,0-0.1,0.1c0,0.2-0.1,0.5-0.2,0.7c0,0,0,0,0.1,0    C49.8,60.1,49.9,59.8,49.9,59.5z"></path>			<path class="ad2" d="M49.8,59.2c-0.1-0.1-0.2-0.2-0.3-0.3c0,0,0.1,0.1,0.1,0.1c0,0.1,0,0.2,0,0.4c0,0,0,0,0.1-0.1    C49.8,59.3,49.8,59.2,49.8,59.2z"></path>			<path class="ad2" d="M48.6,60.1c0-0.1,0-0.3,0.1-0.5c-0.1,0.1-0.3,0.1-0.4,0.2C48.3,59.9,48.5,60,48.6,60.1z"></path>			<path class="ad2" d="M49.5,60.1c-0.1,0-0.2,0.2-0.2,0.3C49.4,60.3,49.4,60.2,49.5,60.1C49.5,60.1,49.5,60.1,49.5,60.1z"></path>			<path class="ad2" d="M49.5,58.9C49.5,58.9,49.5,58.9,49.5,58.9C49.5,58.9,49.5,58.9,49.5,58.9C49.5,58.9,49.5,58.9,49.5,58.9z"></path>			<path class="ad2" d="M49.8,59.2c0-0.1,0-0.1-0.1-0.2c0,0-0.1-0.1-0.2-0.1c0,0,0,0,0,0C49.6,59,49.7,59.1,49.8,59.2z"></path>			<path class="ad2" d="M49.5,58.9C49.5,58.9,49.5,58.9,49.5,58.9C49.5,58.9,49.5,58.9,49.5,58.9C49.5,58.9,49.5,58.9,49.5,58.9z"></path>			<path class="ad2" d="M48.4,58.5C48.4,58.5,48.3,58.5,48.4,58.5c0.1,0,0.2,0.1,0.3,0.1c0,0,0,0,0,0c0.2-0.1,0.3-0.2,0.6-0.2    c0.1,0,0.2,0,0.3,0c-0.1,0-0.1-0.1-0.2-0.1c-0.1,0-0.1,0-0.2-0.1C48.9,58.2,48.6,58.3,48.4,58.5z"></path>			<path class="ad2" d="M50.2,59.2c0,0.4-0.1,0.9-0.4,1.3c0.3-0.1,0.5-0.4,0.6-0.7c0.1-0.4,0-0.9-0.3-1.2c-0.2-0.2-0.4-0.3-0.7-0.4    c0.1,0,0.1,0.1,0.2,0.1C49.9,58.5,50.2,58.8,50.2,59.2z"></path>			<path class="ad2" d="M49.6,58.4c0.2,0.1,0.3,0.3,0.4,0.6c0.2,0.6,0,1.2-0.4,1.6c0.1,0,0.2,0,0.2,0c0.2-0.4,0.4-0.9,0.4-1.3    C50.2,58.8,49.9,58.5,49.6,58.4z"></path>			<path class="ad2" d="M49.5,58.9C49.5,58.9,49.5,58.9,49.5,58.9c0.1,0,0.2,0,0.2,0.1c0.1,0.1,0.1,0.1,0.1,0.2    c0.1,0.1,0.1,0.2,0.1,0.3c0,0.2-0.1,0.6-0.4,0.5c0,0,0,0-0.1,0c0,0,0,0,0,0c0,0.1-0.1,0.2-0.2,0.3c0,0.1,0.1,0.2,0.2,0.2    c0,0,0,0,0.1,0c0.4-0.5,0.6-1.1,0.4-1.6c-0.1-0.2-0.2-0.4-0.4-0.6c-0.1,0-0.2,0-0.3,0c-0.2,0-0.4,0.1-0.6,0.2    c0.2,0,0.4,0.1,0.6,0.2C49.3,58.8,49.4,58.9,49.5,58.9z"></path>			<path class="ad2" d="M48.5,57.8c-0.1,0.1-0.2,0.1-0.3,0.2c0.2,0,0.4,0.1,0.5,0.1c0.2,0,0.3,0.1,0.5,0.1c0,0,0,0,0.1,0    c0,0,0.1,0,0.1,0c0.2,0.1,0.5,0.2,0.7,0.4c0.3,0.3,0.4,0.8,0.3,1.2c-0.1,0.3-0.3,0.6-0.6,0.7c0,0,0,0.1,0,0.1    c-0.2,0.4-0.6,0.8-1,0.9c-0.4,0.1-0.9,0-1.2-0.3c0,0,0,0,0,0c0,0,0,0-0.1,0c-0.2-0.2-0.3-0.5-0.3-0.7c0-0.1,0-0.2,0-0.4    c0,0,0,0,0,0c0-0.3,0-0.7,0.1-1c0.1-0.3,0.2-0.5,0.4-0.6c0.1-0.2,0.3-0.4,0.5-0.6c-0.4,0-0.7,0-1,0.3c-0.3,0.3-0.5,0.7-0.5,1.2    c-0.1,0.5,0,1,0.1,1.4c0.1,0.5,0.4,0.9,0.9,1c0.4,0.1,0.9,0,1.3-0.1c0.9-0.4,1.7-1.4,1.6-2.5C50.5,58.3,49.5,57.4,48.5,57.8z"></path>			<path class="ad2" d="M47.6,58.5c0.1,0,0.2-0.1,0.3-0.1c0.1,0,0.3,0,0.4,0c0,0,0,0,0,0c0.2-0.2,0.5-0.4,0.9-0.3    c-0.2-0.1-0.3-0.1-0.5-0.1c-0.2,0-0.4-0.1-0.5-0.1C48,58.1,47.8,58.3,47.6,58.5z"></path>			<path class="ad2" d="M47.2,60.1C47.2,60.1,47.2,60.1,47.2,60.1c0,0.1,0,0.3,0,0.4C47.2,60.3,47.2,60.2,47.2,60.1    C47.2,60.1,47.2,60.1,47.2,60.1z"></path>			<path class="ad2" d="M49.2,61c-0.4,0.3-1.2,0.6-1.6,0.2c0,0,0,0,0,0c0.3,0.3,0.8,0.4,1.2,0.3c0.5-0.1,0.8-0.5,1-0.9    c0,0,0-0.1,0-0.1c-0.1,0-0.1,0-0.2,0C49.5,60.7,49.3,60.9,49.2,61z"></path>			<path class="ad2" d="M48.2,59.3c-0.1,0.3-0.1,0.5-0.1,0.8c0,0.2,0.2,0.3,0.3,0.2c0.5-0.2,0.9-0.5,1.3-0.9c0-0.1,0-0.3,0-0.4    c0-0.1-0.1-0.1-0.1-0.1c0,0,0,0,0,0c-0.1,0-0.1,0-0.2,0.1c-0.2,0.3-0.4,0.5-0.7,0.6c0,0.2-0.1,0.3-0.1,0.5    c-0.1-0.1-0.2-0.2-0.3-0.3c0.1-0.1,0.3-0.1,0.4-0.2c0-0.2,0.1-0.5,0.3-0.6c0.1-0.1,0.4-0.2,0.6-0.1c-0.1,0-0.2-0.1-0.2-0.1    c-0.2-0.1-0.4-0.1-0.6-0.2C48.4,58.8,48.3,59,48.2,59.3z"></path>			<path class="ad2" d="M49.2,61c0.2-0.1,0.3-0.3,0.4-0.4c0,0,0,0-0.1,0c-0.1,0-0.2-0.1-0.2-0.2c-0.1,0.2-0.3,0.4-0.5,0.5    c-0.2,0.2-0.6,0.2-0.8,0c-0.2-0.1-0.3-0.4-0.3-0.6c-0.1-0.6,0.2-1.4,0.7-1.8c-0.1,0-0.3-0.1-0.4,0c-0.1,0-0.2,0-0.3,0.1    c-0.3,0.5-0.5,1-0.5,1.5c0,0,0,0,0,0c0,0.1,0,0.2,0,0.3c0,0.3,0.2,0.6,0.3,0.8C48,61.6,48.8,61.3,49.2,61z"></path>		</g>	</g>	<g>		<g>			<path class="ad2" d="M30.5,54.2c0.1,0.1,0.2,0.2,0.3,0.3c-0.3,0.1-0.5,0.5-0.4,0.8c0,0,0,0.1,0,0.1c0.3-0.3,0.4-0.7,0.5-1    c0-0.1,0-0.2-0.1-0.3c-0.1,0-0.2,0.1-0.3,0.1C30.5,54.2,30.5,54.2,30.5,54.2z"></path>			<path class="ad2" d="M30.4,54.2c-0.1,0.1-0.3,0.2-0.4,0.3c-0.1,0.2-0.2,0.4-0.1,0.7C30.2,54.9,30.3,54.6,30.4,54.2z"></path>			<path class="ad2" d="M30.4,54.2C30.4,54.2,30.5,54.2,30.4,54.2c0.1,0,0.1,0,0.2,0c0.1,0,0.2-0.1,0.3-0.1c-0.1-0.1-0.2-0.1-0.3,0    c-0.2,0.1-0.4,0.3-0.5,0.5C30.1,54.4,30.3,54.3,30.4,54.2C30.4,54.2,30.4,54.2,30.4,54.2z"></path>			<path class="ad2" d="M30.4,54.2C30.4,54.2,30.4,54.2,30.4,54.2C30.5,54.2,30.4,54.2,30.4,54.2C30.4,54.2,30.4,54.2,30.4,54.2z"></path>			<path class="ad2" d="M30.4,55.3c-0.1,0.1-0.1,0.2-0.2,0.2C30.3,55.6,30.4,55.5,30.4,55.3z"></path>			<path class="ad2" d="M32.5,52.9c-0.5-0.3-1.2-0.3-1.8-0.1c-0.4,0.1-0.8,0.3-1.2,0.5c0.2,0,0.3,0.3,0.1,0.5    c-0.5,0.4-1,0.8-1.4,1.3c0,0.5,0.2,1,0.6,1.3c0.6,0.4,1.4,0.3,2.1,0c0.3-0.2,0.6-0.5,0.9-0.8c0.2-0.2,0.5-0.5,0.7-0.9    c0-0.5-0.3-0.9-0.7-1.1c-0.6-0.2-1.2-0.1-1.7,0.2c-0.5,0.3-0.9,0.7-1.1,1.3c-0.1,0.6,0.3,1,0.9,0.7c0.1-0.1,0.2-0.1,0.3-0.2    c-0.1,0-0.2,0-0.3-0.2c0-0.1,0-0.2,0-0.2c0,0,0,0-0.1,0c-0.1,0.1-0.3,0.2-0.3,0.1c0-0.1,0.1-0.3,0.1-0.4c0.1-0.1,0.2-0.3,0.4-0.4    c0.1-0.2,0.3-0.4,0.5-0.5c0.1,0,0.2,0,0.3,0c0.3-0.1,0.6-0.1,0.8,0.1c0.3,0.2,0.4,0.6,0.2,0.9c-0.2,0.3-0.6,0.6-0.9,0.7    c-0.5,0.3-1.4,0.6-2,0.1c-0.3-0.3-0.3-0.7-0.2-1.1c0.1-0.4,0.5-0.7,0.9-0.9c0.7-0.4,1.9-0.9,2.7-0.4c0.5,0.4,0.5,0.8,0.2,1.3    c0,0,0,0,0,0c0,0.5-0.4,1-0.9,1.3c-0.2,0.1-0.4,0.3-0.7,0.4c-0.4,0.3-0.9,0.6-1.3,0.8c-0.4,0.2-1,0.2-1.3-0.1    c-0.3-0.3-0.4-0.7-0.4-1c0-0.3,0.1-0.6,0.3-0.9c0,0,0,0,0,0c0-0.6,0.4-1.1,0.8-1.4c0.1-0.1,0.3-0.2,0.5-0.3c-0.1,0-0.1,0-0.2,0    c-0.9,0.6-1.9,1.4-1.9,2.6c0,0.5,0.1,1,0.4,1.3c0.4,0.4,1,0.5,1.5,0.4c0.6-0.1,1.2-0.4,1.7-0.8c0.5-0.4,1-0.8,1.4-1.2    c0.4-0.4,0.8-0.9,0.8-1.5C33.2,53.6,32.9,53.2,32.5,52.9z"></path>			<path class="ad2" d="M28.2,55.1C28.2,55.1,28.2,55.1,28.2,55.1c0.3-0.5,0.9-0.9,1.4-1.3c0.2-0.2,0.1-0.5-0.1-0.5    c-0.2,0.1-0.3,0.2-0.5,0.3C28.5,54,28.2,54.5,28.2,55.1z"></path>			<path class="ad2" d="M32.5,54.7C32.5,54.7,32.5,54.7,32.5,54.7c-0.2,0.3-0.5,0.6-0.7,0.9c-0.3,0.3-0.6,0.6-0.9,0.8    c0.3-0.1,0.5-0.2,0.7-0.4C32,55.7,32.5,55.2,32.5,54.7z"></path>			<path class="ad2" d="M30.4,55.3C30.4,55.3,30.4,55.3,30.4,55.3c-0.1-0.4,0-0.7,0.4-0.9c-0.1-0.1-0.2-0.2-0.3-0.3c0,0,0,0-0.1,0    c-0.1,0.4-0.2,0.7-0.5,0.9c0,0.1,0,0.2,0,0.2c0,0.1,0.2,0.2,0.3,0.2C30.3,55.5,30.4,55.4,30.4,55.3z"></path>		</g>	</g>	<g>		<g>			<path class="ad3" d="M58.1,67.1c-0.9,1.9-1.7,3.9-2.3,6c-0.1,0.3,0.4,0.5,0.5,0.1c0.6-2,1.4-3.9,2.3-5.8    C58.7,67.1,58.3,66.8,58.1,67.1z"></path>		</g>	</g>	<g>		<g>			<path class="ad3" d="M54.8,76.6c-0.1,0.3,0.4,0.4,0.5,0.1c0.2-0.6,0.4-1.1,0.7-1.7c0.7-2.6,1.5-5.2,2.3-7.7    C57.2,70.4,56.1,73.5,54.8,76.6z"></path>			<path class="ad3" d="M53.6,83.9c-0.4,1.6-0.8,3.2-1.2,4.7c-0.1,0.3,0.4,0.5,0.5,0.1c1.3-5.6,2.8-11.2,4.5-16.7    c0.5-1.6,0.9-3.1,1.4-4.7C57.9,70,57,72.5,56,75C55.1,78,54.3,80.9,53.6,83.9z"></path>			<path class="ad3" d="M56,75c1-2.5,1.9-5,2.8-7.6c-0.2,0-0.3-0.1-0.5-0.1C57.5,69.9,56.7,72.4,56,75z"></path>			<path class="ad3" d="M58.3,67.3c0.2,0,0.3,0.1,0.5,0.1C58.9,67.1,58.4,67,58.3,67.3z"></path>		</g>	</g>	<g>		<g>			<path class="ad3" d="M55.8,73.1c-0.4,1.5-0.8,2.9-1.1,4.4c-0.1,0.3,0.4,0.5,0.5,0.1c0.4-1.5,0.8-2.9,1.1-4.4    C56.4,72.9,55.9,72.8,55.8,73.1z"></path>		</g>	</g>	<g>		<g>			<path class="ad3" d="M56.9,71.6c0.2-0.2,0.3-0.5,0.5-0.7c-0.2-0.1-0.3-0.1-0.5-0.2c-0.1,0.3-0.2,0.7-0.2,1    C56.7,71.7,56.8,71.6,56.9,71.6z"></path>			<path class="ad3" d="M56.9,70.6c-0.2,0.2-0.3,0.5-0.5,0.7c-0.1,0.2,0,0.4,0.2,0.4C56.7,71.3,56.8,71,56.9,70.6    c0.1,0.1,0.3,0.2,0.4,0.3c-0.2,0.2-0.3,0.5-0.5,0.7c-0.1,0.1-0.1,0.1-0.2,0.1c-1,4.4-2.1,8.9-3.1,13.3c-0.3,1.4-0.6,2.7-1,4.1    c-0.1,0.3,0.4,0.5,0.5,0.1c1.1-4.8,2.2-9.5,3.4-14.3c0.3-1.4,0.6-2.7,1-4.1C57.5,70.5,57.1,70.4,56.9,70.6z"></path>		</g>	</g>	<g>		<g>			<path class="ad3" d="M48.9,88.8c0-0.3,1.1-0.1,1.2-0.1c0.4,0,0.7,0,1.1,0.1c-0.9-0.1-1.7-0.2-2.6-0.2    C48.7,88.6,48.8,88.7,48.9,88.8z"></path>			<path class="ad3" d="M52.7,88.9c-0.5,0-1-0.1-1.4-0.1c-0.4,0-0.7,0-1.1-0.1c-0.1,0-1.3-0.2-1.2,0.1c-0.1-0.1-0.2-0.2-0.3-0.3    c0.9,0.1,1.7,0.2,2.6,0.2c0.2,0,0.5,0,0.7,0c0.3,0,0.3-0.5,0-0.5c-0.8-0.1-1.6-0.1-2.4-0.2c-0.4,0-1.1,0.1-1.1,0.6    c0,0.2,0.1,0.2,0.3,0.3c0.2,0,0.4,0,0.6,0.1C50.4,89.2,51.5,89.1,52.7,88.9c0,0.2,0,0.3,0,0.5c-1.1-0.1-2.3-0.2-3.4-0.3    c-0.7,0-1.4-0.2-2.2-0.3c-0.3-0.1-0.5,0.4-0.1,0.5c1.9,0.4,3.8,0.5,5.7,0.1C53,89.3,52.9,88.9,52.7,88.9z"></path>			<path class="ad3" d="M52.6,88.9c-1.1,0.2-2.2,0.3-3.3,0.2c1.1,0.1,2.3,0.2,3.4,0.3C52.6,89.2,52.6,89.1,52.6,88.9z"></path>		</g>	</g>	<g>		<g>			<path class="ad3" d="M48.1,72.4c0.1-1,0.2-2,0.2-3c-0.2,1.2-0.3,2.5-0.4,3.7c-0.3,2.8-0.5,5.7-0.6,8.5c0.2-1.7,0.3-3.5,0.5-5.2    C47.8,75.1,48,73.8,48.1,72.4z"></path>			<path class="ad3" d="M47,84.5c-0.1,0.8-0.1,1.5-0.2,2.3c0.1,0.1,0.2,0.1,0.3,0c0-1.7,0.1-3.4,0.1-5.1C47.1,82.6,47,83.6,47,84.5z    "></path>			<path class="ad3" d="M47,89.1c-0.2,0-0.3,0-0.5,0C46.5,89.4,47,89.4,47,89.1z"></path>			<path class="ad3" d="M48.3,69.4c0-0.3,0.1-0.5,0.1-0.8c0,0,0-0.1,0-0.1c-0.1,0-0.1,0-0.2,0C48.2,68.8,48.2,69.1,48.3,69.4z"></path>			<path class="ad3" d="M48.3,69.4c0.1,1-0.1,2-0.2,3c-0.1,1.4-0.3,2.7-0.4,4.1c-0.2,1.7-0.3,3.5-0.5,5.2c-0.1,1.7-0.1,3.4-0.1,5.1    c0,0,0.1-0.1,0.1-0.2c0.2-4.7,0.5-9.4,1-14c0.1-1.3,0.3-2.7,0.5-4c-0.1,0-0.2,0-0.3,0c0,0,0,0.1,0,0.1    C48.3,68.9,48.3,69.2,48.3,69.4z"></path>			<path class="ad3" d="M46.6,86.6c0,0.1,0,0.2,0.1,0.2c0.1-0.8,0.1-1.5,0.2-2.3c0.1-0.9,0.2-1.9,0.3-2.9c0.1-2.8,0.3-5.7,0.6-8.5    c0.1-1.2,0.3-2.5,0.4-3.7c0-0.3-0.1-0.6-0.1-0.9c0.1,0,0.1,0,0.2,0c0-0.1-0.1-0.1-0.2-0.1c-0.6,4.7-1.1,9.4-1.3,14.2    C46.7,83.9,46.7,85.2,46.6,86.6z"></path>			<path class="ad3" d="M48.1,68.4C48.1,68.4,48.1,68.4,48.1,68.4c0.1,0,0.2,0.1,0.2,0.1c0.1,0,0.2,0,0.3,0c-0.2,1.3-0.3,2.7-0.5,4    c-0.5,4.7-0.9,9.4-1,14c0,0.1,0,0.1-0.1,0.2c0,0.8,0,1.6,0,2.3c0.5-5.5,1-10.9,1.5-16.4c0.1-1.4,0.4-2.9,0.1-4.3    C48.6,68.1,48.2,68.1,48.1,68.4z"></path>			<path class="ad3" d="M46.7,86.8c-0.1,0.8-0.1,1.5-0.2,2.3c0.2,0,0.3,0,0.5,0c0-0.8,0-1.6,0-2.3C47,86.8,46.8,86.8,46.7,86.8z"></path>			<path class="ad3" d="M46.6,86.6c0-1.3,0.1-2.7,0.2-4c0.3-4.7,0.7-9.5,1.3-14.2c-0.1,0-0.3,0.1-0.3,0.2    c-0.7,5.3-1.1,10.6-1.3,15.9c0,1.5-0.1,3-0.1,4.5c0.1-0.8,0.1-1.5,0.2-2.3C46.7,86.7,46.6,86.7,46.6,86.6z"></path>		</g>	</g>	<g>		<g>			<path class="ad2" d="M77.3,30.6c-0.2,0.1-0.4,0.1-0.6,0.1c0.1,0.1,0.2,0.2,0.3,0.3c0.2-0.1,0.4-0.3,0.5-0.4c0,0-0.1,0-0.1,0    C77.4,30.5,77.4,30.5,77.3,30.6z"></path>			<path class="ad2" d="M76.8,30.2C76.8,30.2,76.8,30.2,76.8,30.2C76.8,30.1,76.8,30.1,76.8,30.2z"></path>			<path class="ad2" d="M76.8,29.4c0.1-0.1,0.3-0.3,0.4-0.4c0.4-0.3,0.9-0.6,1.4-0.7c-0.3,0-0.5,0-0.7,0.1c-0.1,0-0.2,0.1-0.2,0.2    C77.3,28.7,77,29,76.8,29.4z"></path>			<path class="ad2" d="M77.4,31c0.3,0,0.3-0.4,0.2-0.5c-0.2,0.1-0.4,0.3-0.5,0.4C77.1,31,77.3,31,77.4,31z"></path>			<path class="ad2" d="M79.2,28.2c-0.2,0-0.4,0.1-0.6,0.1c0.1,0,0.2,0,0.3,0.1C79,28.4,79.1,28.3,79.2,28.2z"></path>			<path class="ad2" d="M76.3,30.2c0,0.3,0.2,0.4,0.4,0.4c-0.1-0.2-0.2-0.5-0.1-0.8c0-0.2,0.1-0.3,0.2-0.5c0,0-0.1,0.1-0.1,0.1    C76.5,29.7,76.3,30,76.3,30.2z"></path>			<path class="ad2" d="M77.7,29.2c0.5-0.3,1-0.5,1.5-0.6c0,0,0,0,0,0c0,0,0-0.1,0-0.1c0,0,0,0,0,0c0,0-0.1-0.1-0.1-0.1    c-0.1,0-0.3,0-0.4,0c-0.3,0.1-0.7,0.2-0.9,0.4c-0.3,0.2-0.5,0.4-0.6,0.7C77.4,29.5,77.5,29.4,77.7,29.2z"></path>			<path class="ad2" d="M77.8,28.3c0.2-0.1,0.5-0.1,0.7-0.1c0.2-0.1,0.4-0.1,0.6-0.1c0-0.1,0-0.1,0-0.2c-0.1,0-0.1,0-0.2,0    C78.5,28,78.2,28.1,77.8,28.3z"></path>			<path class="ad2" d="M77.2,29.7C77.2,29.7,77.2,29.7,77.2,29.7c0,0-0.1,0.1-0.2,0.2c0,0-0.1,0.1-0.1,0.1c0,0,0,0,0,0.1    c0,0,0,0,0,0c0.1,0,0.1,0,0.2-0.1C77.1,30,77.1,29.8,77.2,29.7z"></path>			<path class="ad2" d="M78.8,28.4c-0.1,0-0.2-0.1-0.3-0.1c-0.5,0.2-1,0.4-1.4,0.7c-0.1,0.1-0.3,0.2-0.4,0.4    c-0.1,0.1-0.1,0.3-0.2,0.5c-0.1,0.3,0,0.6,0.1,0.8c0.2,0,0.4,0,0.6-0.1c0.1,0,0.1-0.1,0.2-0.1c0,0,0,0-0.1,0    c-0.3,0-0.3-0.2-0.3-0.4c-0.1,0-0.1,0.1-0.2,0.1c0,0,0,0,0,0c0,0,0,0,0,0c0,0,0,0,0,0c0,0,0,0,0-0.1c0-0.1,0.1-0.1,0.1-0.1    c0.1-0.1,0.2-0.2,0.3-0.3c0.2-0.3,0.4-0.5,0.6-0.7c0.3-0.2,0.6-0.4,0.9-0.4c0.1,0,0.3,0,0.4,0c0,0,0.1,0,0.1,0.1c0,0,0,0,0,0    c0,0,0,0,0,0.1c0,0,0,0,0,0c0,0,0.1,0,0.1,0c0.1-0.1,0.2-0.2,0.3-0.4c-0.1-0.1-0.1-0.1-0.2-0.2c-0.1,0-0.2,0-0.3,0    C79.1,28.3,79,28.4,78.8,28.4z"></path>			<path class="ad2" d="M79.2,28.2c0.1,0,0.2,0,0.3,0c-0.1-0.1-0.2-0.1-0.4-0.1C79.2,28.1,79.2,28.1,79.2,28.2z"></path>			<path class="ad2" d="M79.9,28.1c-0.1,0-0.3,0-0.4,0c0.1,0,0.1,0.1,0.2,0.2c0,0,0-0.1,0.1-0.1c0.1,0.1,0.1,0.3,0.2,0.4    c0,0-0.1,0-0.1,0c0,0.3-0.2,0.4-0.4,0.6c-0.2,0.2-0.4,0.3-0.6,0.5c-0.3,0.2-0.7,0.4-1,0.6c-0.1,0.1-0.1,0.1-0.2,0.2    c0.2,0.1,0.1,0.5-0.2,0.5c-0.1,0-0.3,0-0.4-0.1c-0.1,0.1-0.2,0.2-0.3,0.2c-0.2,0.1-0.5,0.3-0.6,0.1c-0.1-0.2,0-0.5,0-0.7    c0.2-0.6,0.5-1.2,0.9-1.7c0.2-0.2,0.5-0.4,0.8-0.5c0.3-0.2,0.7-0.4,1.1-0.4c0.1,0,0.1,0,0.2,0c0-0.1-0.1-0.1-0.1-0.1    c-0.7-0.3-1.5-0.1-2.1,0.4c-0.6,0.5-1,1.2-1.2,2c-0.2,0.5-0.3,1.4,0.4,1.6c0.4,0.1,0.8-0.1,1.1-0.4c0.3-0.3,0.7-0.5,1-0.8    c0.7-0.6,1.4-1.4,2-2.1C80.3,28.4,80.2,28.2,79.9,28.1z"></path>			<path class="ad2" d="M79.8,28.7C79.8,28.6,79.8,28.6,79.8,28.7c0-0.2,0-0.3-0.1-0.4c-0.1,0.1-0.2,0.2-0.3,0.4    C79.5,28.6,79.7,28.6,79.8,28.7z"></path>			<path class="ad2" d="M79.4,28.7c0,0-0.1,0-0.1,0c-0.2,0.3-0.6,0.5-0.9,0.7c-0.3,0.2-0.7,0.4-1.1,0.6c-0.1,0-0.1,0.1-0.2,0.1    c0,0.2,0.1,0.4,0.3,0.4c0,0,0,0,0.1,0c0.1,0,0.2-0.1,0.3-0.1C78.3,29.8,78.9,29.3,79.4,28.7z"></path>			<path class="ad2" d="M79.8,28.7c0,0,0.1,0,0.1,0c-0.1-0.1-0.1-0.3-0.2-0.4c0,0,0,0.1-0.1,0.1C79.8,28.4,79.8,28.5,79.8,28.7    C79.8,28.6,79.8,28.6,79.8,28.7z"></path>			<path class="ad2" d="M77.7,30.3c0.4-0.2,0.7-0.4,1-0.6c0.2-0.1,0.4-0.3,0.6-0.5c0.2-0.2,0.4-0.3,0.4-0.6c-0.1,0-0.3,0-0.4,0    C78.9,29.3,78.3,29.8,77.7,30.3z"></path>		</g>	</g>	<g>		<g>			<path class="ad3" d="M68,13.9c-0.5,0.9-0.8,1.9-1.1,2.8c-0.1,0.3,0.4,0.4,0.5,0.1c0.5-1.5,1.2-3.1,2.2-4.4    C69,12.8,68.5,13.3,68,13.9z"></path>			<path class="ad3" d="M69.2,12.1c-0.7,0.5-1.4,1.2-1.9,1.9c-0.4,0.6-0.8,1.3-1.1,2c-0.2,0.5-0.5,1.3,0.1,1.7    c0.3,0.2,0.5-0.3,0.3-0.4c-0.3-0.2,0.2-1.2,0.3-1.5c0.2-0.5,0.5-1,0.8-1.4c0.1-0.1,0.2-0.2,0.3-0.3c0.2-0.5,0.5-0.9,0.8-1.4    C69,12.3,69.1,12.2,69.2,12.1z"></path>			<path class="ad3" d="M70.8,11.4c0.1-0.1,0.2-0.1,0.3-0.2c0.8-0.4,2.3-0.9,2.9,0.1c0.3,0.4,0.3,0.9,0.3,1.4c0.2,0.3,0.4,0.7,0.5,1    c0-0.3,0.1-0.6,0.1-0.8c0-0.6,0-1.1-0.3-1.6c-0.6-1.1-1.9-1.1-3-0.8c-0.9,0.3-1.7,0.9-2.4,1.7c0.3-0.2,0.7-0.4,1-0.5    C70.4,11.4,70.6,11.4,70.8,11.4z"></path>			<path class="ad3" d="M72.8,18.3c0.1,0.1,0.3,0.2,0.4,0.3c0.7-1.2,1.1-2.5,1.4-3.8c0.1-0.4,0.1-0.8,0.2-1.2    c-0.1-0.4-0.3-0.7-0.5-1c0,0,0,0.1,0,0.1c0,0.3,0,0.6-0.1,1c0.1,0.4,0.2,0.8,0.1,1.2C74.4,16.2,73.6,17.3,72.8,18.3z"></path>			<path class="ad3" d="M70.8,11.4c-0.2,0-0.4,0.1-0.6,0.2c-0.4,0.1-0.7,0.3-1,0.5c-0.1,0.1-0.3,0.3-0.4,0.4    c-0.3,0.4-0.6,0.9-0.8,1.4c0.4-0.5,1-1.1,1.6-1.4C69.9,12,70.3,11.7,70.8,11.4z"></path>			<path class="ad3" d="M74.6,14.8c-0.3,1.3-0.7,2.6-1.4,3.8c-0.1-0.1-0.3-0.2-0.4-0.3c0.8-1,1.5-2.1,1.6-3.4c0-0.4,0-0.8-0.1-1.2    c0,0.3-0.1,0.6-0.1,0.9c-0.2,1.3-0.7,2.6-1.3,3.8c-0.1,0.2,0.2,0.6,0.4,0.3c0.8-1,1.6-2.2,1.7-3.5c0.1-0.5,0-1-0.1-1.5    C74.8,14,74.7,14.4,74.6,14.8z"></path>			<path class="ad3" d="M74.3,12.6c-0.2-0.2-0.3-0.4-0.5-0.6c-0.8-0.7-1.9-0.9-3-0.6c-0.5,0.3-0.9,0.7-1.2,1.1    c0.2-0.1,0.4-0.2,0.6-0.3c1-0.4,2.2-0.4,3.1,0.2c0.5,0.3,0.8,0.9,1,1.4c0-0.3,0.1-0.6,0.1-1C74.3,12.7,74.3,12.6,74.3,12.6z"></path>		</g>	</g>	<g>		<g>			<path class="ad3" d="M54.6,21.6c-0.3,0-0.6,0-0.9,0c0.3,0.2,0.5,0.3,0.8,0.5C54.6,22,54.6,21.8,54.6,21.6z"></path>			<path class="ad3" d="M49.1,16.8c0.1,0.8,0.7,1.6,1.3,2.2c1,1,2.1,1.9,3.3,2.7c0.3,0,0.6,0,0.9,0c0,0.2-0.1,0.3-0.1,0.5    c-0.3-0.2-0.5-0.3-0.8-0.5c-1.1-0.1-2.2-0.3-3.1-0.8c-1-0.6-1.8-1.7-1.8-3C48.8,17.4,48.9,17.1,49.1,16.8c-0.1-0.3,0-0.7,0.1-1    c-0.4,0.4-0.7,0.9-0.8,1.5c-0.3,1.4,0.4,2.7,1.4,3.5c1.4,1.1,3.2,1.4,4.9,1.4c0.3,0,0.4-0.4,0.1-0.5c-1.2-0.7-2.3-1.5-3.3-2.4    c-0.8-0.7-2.1-1.8-2-3c0-0.1,0-0.1,0.1-0.2C49.4,16.3,49.2,16.5,49.1,16.8z"></path>			<path class="ad3" d="M49.6,16.1c0.4-0.3,0.8-0.5,1.3-0.6c1.1-0.2,2.3,0.1,3.2,0.8c1.1,0.7,1.8,1.9,2,3.2c0.1,0.3,0.6,0.2,0.5-0.1    c-0.4-2.6-2.9-4.7-5.6-4.4c-0.3,0-0.5,0.1-0.8,0.2C50,15.3,49.7,15.7,49.6,16.1z"></path>			<path class="ad3" d="M52.3,13.8c-1.2,0.1-2.4,0.6-3,1.7c-0.1,0.1-0.1,0.2-0.1,0.3c0.3-0.3,0.7-0.5,1.1-0.7    c0.5-0.4,1.2-0.7,1.8-0.8c1.1-0.1,2.2,0.2,3.1,0.9c1.1,0.8,1.8,2,2.2,3.2c0.1,0.3,0.6,0.2,0.5-0.1C57,15.8,55,13.6,52.3,13.8z"></path>			<path class="ad3" d="M49.1,16.8c0.1-0.3,0.3-0.5,0.6-0.7c0.1-0.4,0.4-0.7,0.7-1c-0.4,0.2-0.8,0.4-1.1,0.7    C49,16.1,49,16.5,49.1,16.8z"></path>		</g>	</g>	<g>		<g>			<path class="ad3" d="M29,87.2c0,0.3,0.5,0.3,0.5,0c0.1-2,0.3-3.9,0.5-5.9c0.2-3.5,0.3-7,0.6-10.6C29.9,76.2,29.4,81.7,29,87.2z"></path>			<path class="ad3" d="M30.6,70.8c0.2,0,0.3,0,0.5,0C31.1,70.4,30.6,70.4,30.6,70.8z"></path>			<path class="ad3" d="M29.9,82.9c0,0.3,0.5,0.3,0.5,0c0.2-4,0.4-8.1,0.6-12.1c-0.4,3.5-0.8,7-1.1,10.6C30,81.8,30,82.4,29.9,82.9z    "></path>			<path class="ad3" d="M30,81.3c0.3-3.5,0.7-7,1.1-10.6c-0.2,0-0.3,0-0.5,0C30.4,74.3,30.2,77.8,30,81.3z"></path>		</g>	</g>	<g>		<g>			<path class="ad3" d="M31.6,69.8c-0.5,4.9-1,9.8-1.5,14.7c-0.1,0.7-0.1,1.3-0.2,2c0,0.5,0,1.1,0.3,1.5c0.2,0.3,0.6,0,0.4-0.3    c-0.3-0.4-0.2-0.9-0.2-1.4c0.1-0.6,0.1-1.2,0.2-1.8c0.1-1.2,0.2-2.4,0.3-3.5c0.2-2.4,0.5-4.8,0.7-7.2c0.1-1.3,0.3-2.7,0.4-4    C32.1,69.5,31.6,69.5,31.6,69.8z"></path>		</g>	</g>	<g>		<g>			<path class="ad3" d="M30.6,89c-0.7,0.2-1.5,0.3-2.3,0.3c-0.1,0-0.3,0.1-0.3,0.3c0,0.1,0.1,0.3,0.3,0.3c0.8,0.1,1.7-0.1,2.4-0.3    C31.1,89.4,31,88.9,30.6,89z"></path>		</g>	</g>	<g>		<g>			<path class="ad3" d="M28.8,88.5c-1.4,0.4-2.9,0.2-4.1-0.6c-0.3-0.2-0.5,0.3-0.3,0.4c1.3,0.8,3,1.1,4.5,0.7    C29.3,88.9,29.2,88.4,28.8,88.5z"></path>		</g>	</g>	<g>		<g>			<path class="ad3" d="M24.2,70.2c0.2-0.3-0.3-0.6-0.4-0.3c-0.5,1-0.4,2.1-0.4,3.2c0.1,1.3,0.2,2.5,0.2,3.8    c0.2,2.6,0.3,5.1,0.5,7.7c0.1,1.5,0.2,2.9,0.3,4.4c0,0.3,0.5,0.3,0.5,0C24.6,84,24.3,79,24,74C23.9,72.8,23.6,71.3,24.2,70.2z"></path>		</g>	</g>	<g>		<g>			<path class="ad3" d="M23.3,67.8c0.2,4.8,0.5,9.7,0.8,14.5c0,0.3,0.5,0.3,0.5,0c-0.3-4.8-0.6-9.7-0.8-14.5    C23.8,67.4,23.3,67.4,23.3,67.8z"></path>		</g>	</g>	<g>		<g>			<path class="ad3" d="M61.7,87.1c-1.2,0-2.4,0-3.6,0.2c-0.1,0-0.3,0.1-0.3,0.3c0,0.1,0.1,0.3,0.3,0.3c1.2-0.2,2.4-0.2,3.6-0.2    C62,87.6,62,87.1,61.7,87.1z"></path>		</g>	</g>	<g>		<g>			<path class="ad3" d="M61.2,87.3c-1.2,0.5-2.4,0.8-3.7,0.7c-0.3,0-0.3,0.5,0,0.5c1.4,0.1,2.7-0.2,4-0.8    C61.8,87.7,61.5,87.2,61.2,87.3z"></path>		</g>	</g>	<g>		<g>			<path class="ad3" d="M57.4,87.7c0,0.2,0,0.3,0,0.5c-0.1-0.1-0.2-0.2-0.3-0.3c0,0,0.1-0.1,0.1-0.1C57.3,87.8,57.3,87.7,57.4,87.7    c-0.3-4.2-0.3-8.5,0-12.7c0-0.3-0.5-0.3-0.5,0c-0.3,4.4-0.3,8.8,0.1,13.2c0,0.2,0.2,0.3,0.3,0.2c0.3,0,0.4-0.2,0.5-0.5    C57.8,87.8,57.6,87.6,57.4,87.7z"></path>			<path class="ad3" d="M57.3,87.9c0,0-0.1,0.1-0.1,0.1c0.1,0.1,0.2,0.2,0.3,0.3c0-0.2,0-0.3,0-0.5C57.3,87.7,57.3,87.8,57.3,87.9z"></path>		</g>	</g>	<g>		<g>			<path class="ad3" d="M57.2,67.3c0-0.3-0.5-0.3-0.5,0c0.2,4.6,0.4,9.1,0.6,13.7c0.1,1.3,0.1,2.6,0.2,3.9c0,0.3,0.5,0.3,0.5,0    c-0.2-4.6-0.4-9.1-0.6-13.7C57.3,69.9,57.3,68.6,57.2,67.3z"></path>		</g>	</g>	<g>		<g>			<path class="ad3" d="M63.6,66.3c-0.2,5-0.5,10-1.1,15c-0.2,1.4-0.3,2.9-0.5,4.3c0,0.3,0.5,0.5,0.5,0.1c0.7-5,1.2-10.1,1.4-15.1    c0.1-1.5,0.1-2.9,0.2-4.4C64.2,66,63.6,66,63.6,66.3z"></path>		</g>	</g>	<g>		<g>			<path class="ad3" d="M64.6,61.2c-1,6.8-1.8,13.6-2.1,20.4c-0.1,2-0.2,3.9-0.2,5.9c0,0.3,0.5,0.3,0.5,0c0.2-6.8,0.7-13.6,1.6-20.4    c0.2-1.9,0.5-3.8,0.8-5.8C65.2,61,64.7,60.9,64.6,61.2z"></path>		</g>	</g>	<g>		<path class="ad4" d="M57.5,66.9c-0.7,0.3-1.4,0.8-1.8,1.4c-0.7,0.9-1.1,2.1-0.9,3.3c0,0.3,0.1,0.6,0.4,0.7c0.3,0.2,0.7-0.1,1-0.4   c1.1-1.2,1.8-2.6,2.2-4.1C58.5,66.9,58.5,66.5,57.5,66.9z"></path>	</g>	<g>		<g>			<path class="ad3" d="M63.9,63.3c-4.2,3.2-9.4,4.6-14.6,5c-1.6,0.1-3.3,0.1-4.9,0c-0.3,0-0.3,0.5,0,0.5c5.4,0.3,11.1-0.4,16-2.8    c1.3-0.6,2.6-1.4,3.8-2.3C64.4,63.5,64.2,63.1,63.9,63.3z"></path>		</g>	</g>	<g>		<g>			<path class="ad3" d="M63.7,62.2c-0.4,1-1.4,1.5-2.4,1.9c-1.2,0.5-2.4,0.9-3.6,1.3c-2.6,0.9-5.2,1.6-7.8,2.3c-1.5,0.4-3,0.7-4.5,1    c-0.3,0.1-0.2,0.6,0.1,0.5c2.7-0.6,5.5-1.2,8.2-2c2.6-0.8,5.2-1.6,7.7-2.6c1.1-0.4,2.2-1.1,2.6-2.2    C64.2,62.1,63.8,61.9,63.7,62.2z"></path>		</g>	</g>	<g>		<g>			<path class="ad3" d="M54.8,66.9c-4.4,1.2-8.9,1.8-13.4,2c-2.3,0.1-4.5,0.1-6.8-0.1c-2.1-0.1-4.2-0.3-6.2-0.8    c-1.9-0.4-3.9-1.2-5.1-2.8c-0.2-0.3-0.6,0-0.4,0.3c1.1,1.5,2.7,2.3,4.4,2.8c2,0.6,4,0.8,6,0.9c4.7,0.4,9.3,0.3,14-0.3    c2.6-0.3,5.2-0.9,7.7-1.5C55.3,67.3,55.2,66.8,54.8,66.9z"></path>		</g>	</g>	<g>		<g>			<path class="ad3" d="M28.6,67.7c-0.5,0.4-1.1,0.3-1.7,0.2c-0.5-0.1-1-0.3-1.5-0.5c-1-0.4-1.9-0.9-2.7-1.6    c-1.6-1.3-2.9-3.1-3.6-5.1c-0.4-1.2-0.7-2.7-0.3-3.9c0.1-0.3-0.4-0.5-0.5-0.1c-0.4,1.2-0.2,2.6,0.2,3.8c0.3,1.1,0.8,2.1,1.4,3.1    c1.3,1.9,3.1,3.4,5.3,4.3c1.1,0.4,2.7,1,3.7,0.2C29.2,67.9,28.8,67.5,28.6,67.7z"></path>		</g>	</g>	<g>		<g>			<path class="ad3" d="M24.9,51.6c-0.8,0-1.5,0.4-2.1,0.9c-0.7,0.5-1.3,1.1-1.9,1.7c-1.2,1.1-2.3,2.4-2.8,4    c-0.1,0.3,0.4,0.4,0.5,0.1c0.5-1.4,1.5-2.6,2.6-3.7c0.5-0.5,1.1-1,1.6-1.5c0.6-0.5,1.3-1,2.1-1.1C25.3,52.1,25.3,51.6,24.9,51.6z    "></path>		</g>	</g>	<g>		<g>			<path class="ad3" d="M40.4,48.6c-4.2,0.6-8.4,1.3-12.5,2.3c-1.2,0.3-2.3,0.6-3.5,0.9c-0.3,0.1-0.2,0.6,0.1,0.5    c4.1-1.1,8.3-1.9,12.5-2.6c1.2-0.2,2.4-0.4,3.6-0.5C40.9,49.1,40.8,48.6,40.4,48.6z"></path>		</g>	</g>	<g>		<g>			<path class="ad3" d="M53.2,42.5c-5.6,3.1-11.7,5.2-18,6.3c-1.8,0.3-3.6,0.5-5.4,0.7c-0.3,0-0.3,0.5,0,0.5    c6.5-0.5,12.8-2.1,18.8-4.7c1.7-0.7,3.3-1.5,4.9-2.4C53.8,42.8,53.5,42.4,53.2,42.5z"></path>		</g>	</g>	<g>		<g>			<path class="ad3" d="M54.4,41.5c-2.6,3.5-6.5,5.8-10.7,6.5c-0.3,0-0.2,0.5,0.1,0.5c3.4-0.5,6.6-2.1,9.1-4.5    c0.7-0.7,1.4-1.4,1.9-2.2C55.1,41.5,54.6,41.3,54.4,41.5z"></path>		</g>	</g>	<g>		<g>			<path class="ad3" d="M65.4,54.6c-0.5,4.1-0.8,8.2-1,12.3c0,0.3,0.5,0.3,0.5,0c0.2-4.1,0.6-8.2,1-12.3    C65.9,54.3,65.4,54.3,65.4,54.6z"></path>		</g>	</g>	<g>		<g>			<path class="ad3" d="M65.1,43.4c-0.3,4.7-0.4,9.3-0.5,14c0,1.3,0,2.7,0,4c0,0.3,0.5,0.3,0.5,0c0-4.7,0-9.3,0.3-14    c0.1-1.3,0.1-2.7,0.2-4C65.7,43.1,65.1,43.1,65.1,43.4z"></path>		</g>	</g>	<g>		<g>			<path class="ad3" d="M65.8,40.5c-0.6,2.9-0.9,5.9-0.9,9c0,0.3,0.5,0.3,0.5,0c0-3,0.3-5.9,0.9-8.8C66.4,40.3,65.9,40.2,65.8,40.5z    "></path>		</g>	</g>	<g>		<g>			<path class="ad3" d="M65.6,40.3c-0.6,2-0.8,4.2-0.7,6.3c0,0.3,0.5,0.3,0.5,0c-0.1-2.1,0.1-4.2,0.6-6.2    C66.2,40.1,65.7,40,65.6,40.3z"></path>		</g>	</g>	<g>		<g>			<path class="ad3" d="M66,39.6c-0.6,1.9-0.8,3.9-0.8,5.9c0,0.3,0.5,0.3,0.5,0c0-2,0.2-3.9,0.8-5.8C66.6,39.4,66.1,39.3,66,39.6z"></path>		</g>	</g>	<g>		<g>			<path class="ad3" d="M53.3,42.6c-0.1,0.3,0.3,0.4,0.5,0.1c0,0,0,0,0,0c0.5-1.2,1-2.4,1.6-3.5c-0.1-0.1-0.3-0.1-0.4-0.2    c-0.1,0.3-0.3,0.6-0.4,0.9C54.3,40.9,53.9,41.8,53.3,42.6z"></path>			<path class="ad3" d="M54.7,40c0.1-0.3,0.3-0.6,0.4-0.9c0,0-0.1,0-0.1,0C54.9,39.4,54.8,39.7,54.7,40z"></path>			<path class="ad3" d="M53.8,42.8C53.8,42.8,53.9,42.8,53.8,42.8C53.8,42.8,53.8,42.8,53.8,42.8C53.8,42.8,53.8,42.8,53.8,42.8z"></path>			<path class="ad3" d="M55,39C55,39,55,39.1,55,39c0.1,0,0.1-0.1,0.2-0.2C55.1,38.9,55,38.9,55,39c-0.6,1.1-1.1,2.3-1.6,3.5    c0.5-0.8,0.9-1.7,1.3-2.5C54.8,39.7,54.9,39.4,55,39z"></path>			<path class="ad3" d="M53.6,43.3c-0.1-0.1-0.3-0.2-0.4-0.3C52.9,43.3,53.4,43.6,53.6,43.3z"></path>			<path class="ad3" d="M53.8,42.8C53.8,42.8,53.8,42.8,53.8,42.8c-0.1,0.2-0.2,0.4-0.3,0.5c0.7-1,1.2-2,1.6-3.1    C54.8,41,54.3,41.9,53.8,42.8C53.9,42.8,53.8,42.8,53.8,42.8z"></path>			<path class="ad3" d="M55.5,38c-0.1,0.3-0.2,0.6-0.3,0.9c0.2-0.1,0.4,0.1,0.3,0.3c-0.1,0.3-0.2,0.7-0.3,1c0.3-0.7,0.6-1.3,0.8-2    C56.1,37.8,55.6,37.7,55.5,38z"></path>			<path class="ad3" d="M55.1,38.9c0,0.1-0.1,0.1-0.1,0.2c0.1,0.1,0.3,0.1,0.4,0.2c-0.6,1.1-1.1,2.3-1.6,3.5    c0.5-0.8,0.9-1.7,1.3-2.6c0.1-0.3,0.2-0.6,0.3-1C55.5,39,55.3,38.8,55.1,38.9z"></path>			<path class="ad3" d="M53.3,42.6c-0.1,0.1-0.2,0.3-0.2,0.4c0.1,0.1,0.3,0.2,0.4,0.3c0.1-0.2,0.2-0.3,0.3-0.5    C53.7,43.1,53.2,42.9,53.3,42.6z"></path>			<path class="ad3" d="M53.3,42.6c0.5-0.8,1-1.7,1.3-2.7c-0.4,0.9-0.8,1.7-1.3,2.5C53.4,42.5,53.4,42.6,53.3,42.6    C53.3,42.6,53.3,42.6,53.3,42.6z"></path>			<path class="ad3" d="M53.3,42.6c0,0,0-0.1,0.1-0.1c-0.1,0.2-0.2,0.4-0.3,0.5C53.2,42.9,53.3,42.8,53.3,42.6    C53.3,42.6,53.3,42.6,53.3,42.6z"></path>		</g>	</g>	<g>		<g>			<path class="ad3" d="M52,33.4c0.3,0.4,0.6,0.8,0.9,1.1c-0.2-0.4-0.3-0.9-0.4-1.3C52.3,33.2,52.2,33.3,52,33.4z"></path>			<path class="ad3" d="M56.3,38.1c-0.8,0-1.5-0.4-2.1-0.9c0.6,0.6,1.3,1,2,1.4C56.2,38.4,56.3,38.3,56.3,38.1z"></path>			<path class="ad3" d="M56.5,38.2c-1.6-0.7-2.9-2.1-3.6-3.7c-0.3-0.4-0.6-0.7-0.9-1.1c0.2-0.1,0.3-0.1,0.5-0.2    c0.1,0.5,0.2,0.9,0.4,1.3c0.9,1,1.9,2,2.9,2.9c0.3,0.2,0.6-0.2,0.4-0.4c-1.4-1.1-2.7-2.4-3.7-3.9c-0.2-0.2-0.5-0.1-0.5,0.2    c0.3,1.5,1.1,2.9,2.2,3.9c0.6,0.5,1.3,0.9,2.1,0.9c0,0.2-0.1,0.3-0.1,0.5c-0.7-0.3-1.4-0.8-2-1.4c-0.6-0.5-1.2-1.2-1.6-1.8    c-0.2-0.3-0.7,0-0.4,0.3c1.1,1.4,2.4,2.9,4.2,3C56.6,38.6,56.7,38.3,56.5,38.2z"></path>		</g>	</g>	<g>		<g>			<path class="ad3" d="M79.9,23.7c0.1,0.2,0.3,0.3,0.4,0.5c-0.4-0.5-0.7-1.1-1.2-1.5c-1.8-2-4.1-3.2-6.6-4    c-0.6-0.2-1.3-0.4-1.9-0.6c-0.7-0.2-1.3-0.3-2-0.4c-2.7-0.5-5.5-0.6-8.1,0c0.5,0,1.1-0.1,1.6-0.1c2.6-0.1,5.2,0.2,7.7,0.8    c1.5,0.3,2.9,0.7,4.3,1.3C76.4,20.6,78.4,21.9,79.9,23.7z"></path>			<path class="ad3" d="M82.3,29.4c0-0.1,0-0.2,0-0.4c-0.3-1.7-1-3.4-1.9-4.8c-0.1-0.2-0.2-0.3-0.4-0.5c-1.5-1.8-3.6-3.1-5.8-4    c-1.4-0.6-2.8-1-4.3-1.3c0.2,0,0.3,0.1,0.5,0.1c2.5,0.6,5.1,1.6,7.1,3.2c1.8,1.5,3.1,3.4,3.8,5.6c0.5,1.6,0.8,3.5,0.5,5.2    c0.3-0.9,0.5-1.8,0.5-2.8C82.3,29.7,82.3,29.5,82.3,29.4z"></path>			<path class="ad3" d="M62.1,17.6c-0.5,0-1.1,0-1.6,0.1c-2.3,0.5-4.5,1.4-6.3,3.1c-1.7,1.5-2.8,3.5-3.2,5.8c-0.3,2.2,0,4.5,1.1,6.5    c0.3,0.5,0.6,0.9,0.9,1.4c0.2,0.3,0.6-0.1,0.4-0.4c-2.7-3.5-2.6-8.6,0.3-12c3.2-3.7,8.4-4.6,13.1-4.1c1,0.1,2.1,0.3,3.1,0.5    C67.3,17.8,64.7,17.5,62.1,17.6z"></path>			<path class="ad3" d="M68.7,17.7c0.6,0.1,1.3,0.2,2,0.4c-2.1-0.6-4.3-0.9-6.5-1c-2.7-0.1-5.5,0.1-8.1,0.8c-2.4,0.7-4.5,1.9-5.9,4    c-1.3,2-1.9,4.4-1.7,6.8c0.2,2.5,1.3,4.8,2.8,6.8c0.4,0.5,0.8,1,1.2,1.4c0.2,0.2,0.6-0.1,0.4-0.4c-1.7-1.7-3-3.8-3.6-6.2    c-0.6-2.3-0.4-4.7,0.6-6.9c1-2.2,2.8-3.7,5-4.6c1.8-0.7,3.8-1.1,5.8-1.2C63.2,17.1,66,17.2,68.7,17.7z"></path>			<path class="ad3" d="M70.6,18.1c0.6,0.2,1.3,0.4,1.9,0.6c2.5,0.8,4.8,2,6.6,4c0.4,0.5,0.8,1,1.2,1.5c1.1,1.5,1.9,3.3,2,5.2    c0.2,1.1,0.2,2.2,0,3.4c0.2-0.4,0.3-0.9,0.4-1.3c0.4-2.3-0.1-4.6-1.2-6.5C79.1,21,74.9,19.1,70.6,18.1z"></path>			<path class="ad3" d="M69.7,40c-1.4,0.1-2.8,0.1-4.2,0c0-0.2,0-0.3,0.1-0.5c0.6,0.1,1.2,0.3,1.7,0.3C68.1,39.9,68.9,39.9,69.7,40    c1.5-0.1,3.1-0.3,4.6-0.6c0.1,0,0.3-0.1,0.4-0.1c1.1-0.4,2.2-0.9,3.2-1.6c-0.7,0.3-1.4,0.6-2.1,0.8c-2.7,0.8-5.5,1.1-8.2,1.1    c-0.7,0-1.4,0-2.1-0.1c-0.3,0-0.4,0.4-0.1,0.5c4.2,1,9.1,0.7,12.7-1.8c-1.1,0.5-2.3,0.8-3.4,1.1C73.1,39.8,71.4,40,69.7,40z"></path>			<path class="ad3" d="M78.1,38.1c1-0.5,2-1.1,2.7-2c0.8-1,1.2-2.1,1.4-3.4c-0.6,1.7-1.6,3.2-2.9,4.4C79,37.5,78.6,37.8,78.1,38.1z    "></path>			<path class="ad3" d="M65.6,39.4c0,0.2,0,0.3-0.1,0.5c1.4,0.1,2.8,0.1,4.2,0c-0.8,0-1.6-0.1-2.4-0.2    C66.7,39.7,66.1,39.6,65.6,39.4z"></path>			<path class="ad3" d="M82.3,29.4c0,0.1,0,0.3,0,0.4c0,1-0.2,1.9-0.5,2.8c-0.1,0.6-0.2,1.2-0.5,1.7c-0.6,1.6-1.9,2.6-3.4,3.3    c-1,0.7-2,1.2-3.2,1.6c1.1-0.3,2.3-0.6,3.4-1.1c0.4-0.3,0.9-0.6,1.3-1c1.3-1.2,2.3-2.7,2.9-4.4C82.4,31.6,82.4,30.5,82.3,29.4z"></path>			<path class="ad3" d="M81.3,34.4c0.2-0.6,0.4-1.1,0.5-1.7c-0.4,1.1-1,2.1-1.7,3c-0.6,0.8-1.4,1.4-2.2,2    C79.4,37,80.6,35.9,81.3,34.4z"></path>		</g>	</g>	<g>		<g>			<path class="ad1" d="M35.9,87.2c0.1-0.4,0.2-0.7,0.2-1.1c-0.2,0.3-0.5,0.6-0.7,0.9C35.6,87.1,35.7,87.1,35.9,87.2z"></path>			<path class="ad1" d="M31.3,86.8c0.1-0.3,0.1-0.6,0.1-0.9c-0.2,0.2-0.4,0.4-0.6,0.7C31,86.7,31.1,86.8,31.3,86.8z"></path>			<path class="ad1" d="M42,87.5c0-0.2-0.1-0.3-0.1-0.5c-0.1,0.1-0.3,0.3-0.4,0.4C41.7,87.4,41.9,87.4,42,87.5z"></path>			<path class="ad1" d="M26.1,87.4c0-0.3,0-0.6,0-0.9c-0.2,0.3-0.4,0.5-0.5,0.8C25.8,87.3,26,87.3,26.1,87.4z"></path>			<path class="ad1" d="M48,88.5c0.1-0.3,0.1-0.6,0.1-0.9c-0.2,0.2-0.3,0.5-0.6,0.7C47.7,88.4,47.8,88.4,48,88.5z"></path>			<path class="ad1" d="M67.7,88.6c-0.1-0.3-0.2-0.5-0.3-0.8c-0.1,0.3-0.2,0.5-0.2,0.8C67.4,88.6,67.6,88.6,67.7,88.6z"></path>			<path class="ad1" d="M61.2,88.2c0-0.3-0.1-0.7-0.1-1.1c-0.1,0.3-0.3,0.7-0.4,1.1C60.9,88.2,61,88.2,61.2,88.2z"></path>			<path class="ad1" d="M54.4,89.1c-0.1-0.1-0.1-0.3-0.2-0.4c-0.1,0.1-0.2,0.3-0.3,0.4C54.1,89.1,54.3,89.1,54.4,89.1z"></path>			<path class="ad1" d="M15,86.8c0-0.3,0-0.6,0-0.9c-0.2,0.3-0.4,0.5-0.5,0.8C14.7,86.7,14.9,86.7,15,86.8z"></path>			<path class="ad1" d="M5.6,83.3c0.1,0.2,0.1,0.4,0.2,0.6c0.1-0.2,0.2-0.4,0.3-0.6C5.9,83.4,5.7,83.3,5.6,83.3z"></path>			<path class="ad1" d="M73.4,83.7c-1.8-0.7-3.7,0.3-4.8,1.7c-0.5,0.7-0.9,1.5-1.2,2.3c0.1,0.3,0.2,0.5,0.3,0.8c-0.2,0-0.3,0-0.5,0    c0.1-0.3,0.2-0.5,0.2-0.8c-0.3-0.9-0.7-1.8-1.1-2.6c-0.4-0.8-1-2-2-1.9c-0.5,0-0.9,0.3-1.2,0.7c-0.4,0.4-0.7,0.8-1,1.3    c-0.4,0.6-0.8,1.3-1.1,2c0.1,0.4,0.1,0.8,0.1,1.1c-0.2,0-0.3,0-0.5-0.1c0.1-0.4,0.2-0.7,0.4-1.1c-0.2-1.3-0.8-2.7-2.3-2.8    c-1,0-1.8,0.7-2.4,1.5c-0.7,0.9-1.4,1.9-2.1,2.9c0,0.1,0.1,0.3,0.2,0.4c-0.1,0-0.3,0-0.4,0c0.1-0.1,0.2-0.3,0.3-0.4    c-0.4-1.3,0.1-2.9-0.8-4c-1.1-1.5-3.2-0.5-4,0.8c-0.5,0.7-0.8,1.5-1.3,2.2c0,0.3-0.1,0.6-0.1,0.9c-0.1-0.1-0.3-0.2-0.4-0.3    c0.2-0.2,0.4-0.4,0.6-0.7c0.1-1,0.1-1.9,0-2.9c-0.1-0.7-0.4-1.6-1.2-1.7c-0.5,0-0.9,0.3-1.3,0.6c-0.5,0.4-0.9,0.7-1.4,1.1    c-0.8,0.7-1.5,1.4-2.2,2.2c0,0.2,0,0.3,0.1,0.5c-0.1,0-0.3-0.1-0.4-0.1c0.1-0.1,0.2-0.3,0.4-0.4c0-1,0.5-1.9,0.4-2.9    c-0.1-0.8-0.6-1.7-1.6-1.7c-0.5,0-1,0.3-1.4,0.7c-0.5,0.4-0.9,0.8-1.4,1.2c-0.6,0.6-1.2,1.2-1.8,1.9c-0.1,0.4-0.2,0.7-0.2,1.1    c-0.2-0.1-0.3-0.1-0.5-0.2c0.2-0.3,0.5-0.6,0.7-0.9c0.2-0.8,0.3-1.5,0.3-2.3c0-0.7-0.2-1.7-1.2-1.6c-0.9,0.1-1.6,1-2.1,1.7    c-0.6,0.7-1.2,1.3-1.7,2c0,0.3-0.1,0.6-0.1,0.9c-0.1-0.1-0.3-0.2-0.4-0.3c0.2-0.2,0.4-0.4,0.6-0.7c0.1-0.8,0-1.5-0.1-2.3    c-0.2-0.8-0.7-1.7-1.6-1.1c-0.4,0.2-0.8,0.6-1.1,1c-0.4,0.4-0.7,0.8-1.1,1.2c-0.5,0.6-0.9,1.2-1.3,1.8c0,0.3,0,0.6,0,0.9    c-0.2,0-0.3-0.1-0.5-0.1c0.2-0.3,0.3-0.5,0.5-0.8c0-0.7-0.1-1.4-0.4-2c-0.4-0.9-1.2-1.3-2.2-1.4c-1.7-0.1-2.9,1.1-3.8,2.4    c-0.1,0.6-0.2,1.1-0.2,1.3c-0.2-0.1-0.3-0.1-0.5-0.2c0.2-0.4,0.5-0.8,0.7-1.1c0.2-1.6,0.1-3.7-1.4-3.1c-0.4,0.2-0.7,0.5-1.1,0.8    c-0.4,0.3-0.7,0.7-1,1.1c-0.4,0.5-0.8,1-1.2,1.6c0,0.3,0,0.6,0,0.9c-0.2,0-0.3-0.1-0.5-0.1c0.2-0.3,0.3-0.5,0.5-0.8    c0-0.7-0.1-1.4-0.2-2.1c-0.1-0.7-0.4-1.8-1.3-1.8c-0.9,0-1.5,0.9-2,1.4c-0.6,0.7-1.2,1.4-1.8,2c0,0.2,0,0.4,0,0.6    c-0.1-0.1-0.3-0.1-0.4-0.2c0.1-0.1,0.3-0.3,0.4-0.4c0-0.7-0.1-1.4-0.2-2c-0.1-0.6-0.4-1.2-1.1-1c-0.7,0.2-1,1-1.3,1.6    c-0.2,0.5-0.4,1-0.6,1.5c0.1,0.3,0.2,0.6,0.3,1c-0.2,0-0.3,0-0.5,0c0.1-0.3,0.2-0.7,0.2-1c-0.2-0.8-0.4-1.6-0.6-2.3    C6,83,5.7,82.9,5.6,83.1C5,84,4.7,85,4.5,86.1c0.1,0.2,0.3,0.4,0.4,0.6c-0.2,0-0.3,0.1-0.5,0.1c0-0.2,0-0.5,0.1-0.7    c-0.5-0.7-1.2-1.3-1.9-1.8c-0.1-0.1-0.2,0-0.3,0c-0.8,0.7-1.1,1.9-0.6,2.8c0.1,0.3,0.6,0.2,0.5-0.1c-0.3-0.7-0.2-1.6,0.4-2.2    c-0.1,0-0.1-0.1-0.2-0.1c0.1,0,0.2,0,0.3,0c-0.1,0.1-0.1,0.1-0.2,0.2c0.8,0.6,1.4,1.3,1.9,2.1C4.6,87.1,4.9,87,5,86.8    c0.1-1,0.3-1.9,0.8-2.8c-0.1-0.2-0.1-0.4-0.2-0.6c0.2,0,0.3,0,0.5,0.1c-0.1,0.2-0.2,0.4-0.3,0.6c0.2,0.9,0.5,1.8,0.7,2.7    c0.1,0.2,0.4,0.3,0.5,0c0.1-0.6,0.3-1.3,0.6-1.9c0.2-0.5,0.5-1.2,0.9-1.6C9,82.5,9.1,83.5,9.2,84c0.1,0.7,0.1,1.4,0.2,2.1    c0,0.2,0.3,0.4,0.4,0.2c0.6-0.7,1.2-1.3,1.8-2c0.5-0.6,1-1.3,1.7-1.7c0.9-0.4,1.1,0.9,1.2,1.5c0.1,0.9,0.2,1.7,0.1,2.6    c0,0.3,0.4,0.3,0.5,0.1c0.8-1.4,1.8-2.6,3-3.6c0.2-0.2,0.7-0.6,1.1-0.5c0.3,0.2,0.3,0.9,0.3,1.2c0.1,0.9-0.1,1.7-0.3,2.6    c-0.1,0.3,0.3,0.5,0.5,0.2c0.9-1.5,2-3.3,3.9-3.3c0.9,0,1.7,0.4,2,1.3c0.3,0.8,0.3,1.7,0.2,2.5c0,0.3,0.4,0.3,0.5,0.1    c0.9-1.4,1.9-2.8,3.2-3.9c0.2-0.2,0.7-0.8,1.1-0.7c0.4,0.1,0.4,0.7,0.5,1c0.2,0.9,0.2,1.9,0,2.8c-0.1,0.2,0.3,0.5,0.4,0.3    c0.6-0.7,1.2-1.4,1.8-2.1c0.3-0.3,0.6-0.7,0.9-1c0.3-0.3,0.5-0.6,0.9-0.8c0.3-0.2,0.8-0.3,1,0.1c0.2,0.3,0.1,0.8,0.1,1.2    c-0.1,1-0.2,1.9-0.5,2.8c-0.1,0.3,0.3,0.4,0.5,0.2c0.7-0.9,1.4-1.7,2.2-2.4c0.4-0.4,0.8-0.7,1.2-1c0.4-0.3,0.9-0.7,1.4-0.9    c1-0.2,1.3,0.9,1.2,1.7c-0.1,1-0.6,2-0.3,3c0,0.2,0.3,0.3,0.4,0.1c0.7-0.7,1.3-1.4,2.1-2.1c0.4-0.3,0.7-0.7,1.1-1    c0.4-0.3,0.8-0.7,1.2-0.9c1.8-1,1.3,4,1.2,4.7c0,0.2,0.2,0.4,0.4,0.3c0.8-0.8,1.2-1.9,1.9-2.9c0.5-0.8,1.6-1.7,2.6-1.3    c0.9,0.3,1,1.4,1.1,2.2c0.1,0.9,0.1,1.8,0.5,2.7c0.1,0.2,0.3,0.1,0.4,0c0.7-1,1.3-1.9,2-2.9c0.5-0.7,1.2-1.6,2.1-1.6    c1.7-0.1,2.1,2.2,2.1,3.4c0,0.3,0.4,0.4,0.5,0.1c0.3-0.9,0.7-1.8,1.2-2.6c0.3-0.4,0.6-0.8,0.9-1.2c0.3-0.3,0.7-0.8,1.1-0.8    c0.4,0,0.7,0.4,1,0.7c0.3,0.4,0.5,0.9,0.8,1.3c0.5,0.9,0.8,1.9,1.1,2.9c0.1,0.2,0.4,0.2,0.5,0c0.6-2,1.6-4.2,3.9-4.7    c0.9-0.2,1.9,0,2.5,0.8c0.6,0.7,0.8,1.6,0.3,2.4c-0.2,0.3,0.3,0.6,0.4,0.3C75.7,86.1,74.8,84.3,73.4,83.7z"></path>			<path class="ad1" d="M2.4,84.7c0.1,0,0.1,0.1,0.2,0.1c0.1-0.1,0.1-0.1,0.2-0.2C2.6,84.6,2.5,84.6,2.4,84.7z"></path>			<path class="ad1" d="M19.5,86.8c0.1-0.3,0.2-0.8,0.2-1.3c-0.3,0.4-0.5,0.8-0.7,1.1C19.2,86.7,19.4,86.8,19.5,86.8z"></path>			<path class="ad1" d="M9.8,86.1c0-0.2,0-0.4,0-0.6c-0.1,0.1-0.3,0.3-0.4,0.4C9.5,86,9.7,86.1,9.8,86.1z"></path>			<path class="ad1" d="M6.9,86.5c-0.1-0.3-0.2-0.6-0.3-1c-0.1,0.3-0.2,0.6-0.2,1C6.6,86.5,6.8,86.5,6.9,86.5z"></path>			<path class="ad1" d="M4.9,86.6c-0.1-0.2-0.3-0.4-0.4-0.6c0,0.2-0.1,0.5-0.1,0.7C4.6,86.7,4.8,86.7,4.9,86.6z"></path>		</g>	</g>	<g>		<g>			<path class="ad3" d="M58.7,67.1c0-0.2-0.3-0.3-0.5-0.1c-1.1,1.5-1.5,3.3-1.9,5c0.4-1.7,1.2-3.3,2-4.9    C58.4,66.9,58.6,67,58.7,67.1z"></path>			<path class="ad3" d="M56.8,72.1c-0.2,0-0.3-0.1-0.5-0.1C56.2,72.3,56.7,72.5,56.8,72.1z"></path>			<path class="ad3" d="M58.7,67.1c0,0,0,0.1,0,0.2c-1,1.4-1.5,3.2-1.9,4.9c0.4-1.7,1.2-3.2,2-4.8C58.8,67.3,58.8,67.2,58.7,67.1z"></path>			<path class="ad3" d="M58.7,67.1c-0.1-0.1-0.3-0.2-0.4,0c-0.8,1.6-1.6,3.2-2,4.9c0.2,0,0.3,0.1,0.5,0.1c0.4-1.7,0.9-3.4,1.9-4.9    C58.7,67.2,58.7,67.1,58.7,67.1z"></path>		</g>	</g>	<g>		<g>			<path class="ad5" d="M77.9,67.9c-0.1-0.1-0.1-0.1-0.2-0.1c-0.1,0-0.1,0-0.2,0.1C77.7,67.9,77.8,67.9,77.9,67.9z"></path>			<path class="ad5" d="M78.6,65.8c-0.7,0.3-1.3,1.1-1.1,1.9c0,0,0,0.1,0,0.1c0,0,0.1-0.1,0.2-0.1c0.1,0,0.2,0,0.2,0.1    c0.1-0.1,0.1-0.1,0.1-0.3c-0.1-0.5,0.2-1,0.6-1.2c0.5-0.3,1-0.2,1.3,0.2c0.3,0.3,0.5,0.9,0.4,1.3c-0.1,0.6-0.5,1.1-1.1,1.2    c-0.7,0.2-1.4-0.4-1.3-1.1c0-0.1,0-0.1-0.1-0.2c-0.1,0.1-0.3,0.1-0.4-0.1c-0.1,0-0.1,0.1-0.1,0.2c-0.1,0.8,0.6,1.6,1.5,1.6    c0.8,0,1.6-0.6,1.9-1.3c0.2-0.6,0.1-1.4-0.3-1.9C80.1,65.8,79.3,65.5,78.6,65.8z"></path>		</g>	</g>	<g>		<g>			<path class="ad6" d="M94.5,73.1c-0.1,0-0.3,0-0.3,0.2c-0.2,1.2-1.8,1.9-2.8,1.1c-0.1-0.1-0.3,0-0.4,0.1c-0.1,0.1,0,0.3,0.1,0.4    c1.2,0.9,3.4,0.1,3.6-1.4C94.7,73.3,94.7,73.1,94.5,73.1z"></path>		</g>	</g>	<g>		<g>			<path class="ad6" d="M97.4,41.7C97.4,41.7,97.4,41.7,97.4,41.7C97.5,41.7,97.4,41.7,97.4,41.7z"></path>			<path class="ad6" d="M97.8,42C97.8,42,97.8,42,97.8,42C97.8,42,97.8,42,97.8,42z"></path>			<path class="ad6" d="M97.2,41.6C97.2,41.6,97.2,41.6,97.2,41.6C97.2,41.6,97.2,41.6,97.2,41.6z"></path>			<path class="ad6" d="M96.9,41.6C96.9,41.6,96.9,41.6,96.9,41.6C96.9,41.6,96.9,41.6,96.9,41.6z"></path>			<path class="ad6" d="M96.6,41.7C96.6,41.7,96.6,41.7,96.6,41.7L96.6,41.7z"></path>			<path class="ad6" d="M97.6,41.8C97.6,41.8,97.6,41.8,97.6,41.8C97.7,41.8,97.7,41.8,97.6,41.8z"></path>			<path class="ad6" d="M97.8,43.2C97.8,43.2,97.8,43.2,97.8,43.2C97.8,43.2,97.8,43.2,97.8,43.2z"></path>			<path class="ad6" d="M97.9,43C97.9,43,97.9,43,97.9,43C97.9,43,97.9,43,97.9,43z"></path>			<path class="ad6" d="M97.9,42.2C97.9,42.2,97.9,42.2,97.9,42.2C97.9,42.2,97.9,42.2,97.9,42.2z"></path>			<path class="ad6" d="M96.9,41.1c-0.4,0-0.7,0.2-1,0.4c-0.1,0.1-0.1,0.3,0,0.4c0.1,0.1,0.3,0.1,0.4,0c0,0,0,0,0.1-0.1c0,0,0,0,0,0    c0,0,0,0,0,0c0,0,0,0,0.1,0c0,0,0.1,0,0.1-0.1c0,0,0,0,0,0c0,0,0,0,0,0c0,0,0,0,0,0c0,0,0,0,0,0c0,0,0.1,0,0.1,0c0,0,0.1,0,0.1,0    c0,0,0,0,0,0c0,0,0,0,0,0c0,0,0,0,0,0c0,0,0,0,0,0c0,0,0.1,0,0.1,0c0,0,0.1,0,0.1,0c0,0,0.1,0,0.1,0c0,0,0.1,0,0.1,0c0,0,0,0,0,0    c0,0,0,0,0,0c0.1,0,0.1,0,0.2,0c0,0,0.1,0,0.1,0c0,0,0,0,0,0c0,0,0,0,0,0c0,0,0,0,0,0c0,0,0,0,0.1,0c0,0,0.1,0.1,0.1,0.1    c0,0,0,0,0,0c0,0,0,0,0,0c0,0,0,0,0,0c0,0,0,0,0,0c0,0,0.1,0,0.1,0.1c0,0,0,0,0,0c0,0,0,0,0,0c0,0,0,0,0,0c0,0,0,0,0,0.1    c0,0,0,0.1,0,0.1c0,0,0,0,0,0.1c0,0,0,0,0,0c0,0,0,0,0,0c0,0.1,0,0.1,0,0.2c0,0,0,0.1,0,0.1c0,0,0,0,0,0c0,0,0,0,0,0c0,0,0,0,0,0    c0,0,0,0,0,0.1c0,0.1,0,0.1,0,0.2c0,0,0,0.1,0,0.1c0,0,0,0,0,0c0,0,0,0,0,0c0,0,0,0.1,0,0.1c0,0.1,0,0.1-0.1,0.2c0,0,0,0,0,0    c0,0,0,0,0,0c0,0,0,0.1,0,0.1c0,0,0,0.1-0.1,0.1c0,0,0,0,0,0c0,0,0,0,0,0c0,0,0,0,0,0c0,0,0,0,0,0c0,0,0,0,0,0c0,0,0,0,0,0.1    c0,0,0,0-0.1,0.1c0,0,0,0,0,0c0,0,0,0,0,0c-0.1,0.1-0.2,0.2-0.1,0.4c0.1,0.1,0.2,0.2,0.4,0.1c0.5-0.4,0.8-1.1,0.6-1.7    C98.2,41.5,97.6,41.1,96.9,41.1z"></path>			<path class="ad6" d="M98,42.7C98,42.7,98,42.7,98,42.7C98,42.7,98,42.7,98,42.7z"></path>			<path class="ad6" d="M98,42.4C98,42.4,98,42.4,98,42.4C98,42.4,98,42.4,98,42.4C98,42.4,98,42.4,98,42.4z"></path>		</g>	</g></g></svg>