<svg xmlns="http://www.w3.org/2000/svg" xmlns:xlink="http://www.w3.org/1999/xlink" x="0px" y="0px" viewBox="0 0 100 100" style="enable-background:new 0 0 100 100;" xml:space="preserve"><style type="text/css">	.dark_planet_0{fill:#AA532E;}	.dark_planet_1{fill:#B9CFD4;}	.dark_planet_2{fill:#E6EAEC;}	.dark_planet_3{fill:#FF986D;}	.dark_planet_4{fill:#97B4C1;}</style><g>	<g>		<path class="dark_planet_0" d="M77.6,41.4C75.7,36,72,31.3,67.3,28c-11.7-8.3-28.3-7.4-38.6,4.4c-3.8,4.4-6.4,9.8-7,15.6   c-0.7,5.7,0.6,11.5,3.2,16.6c2.6,5,6.7,9.3,11.7,12.1c5,2.8,10.9,3.8,16.6,3.3c5.7-0.6,11.2-2.7,15.7-6.3c4.6-3.7,7.8-9,9.4-14.7   C79.7,53.2,79.6,47,77.6,41.4"></path>		<g>			<path d="M59.6,30.2c0-0.2,0-0.4-0.1-0.6c-0.1-0.1-0.1-0.2-0.2-0.3c-0.1-0.2-0.3-0.4-0.6-0.5c-0.1,0-0.2-0.1-0.4-0.1    c-0.3,0-0.5,0-0.8,0.1c-0.1,0-0.2,0-0.2,0.1c-0.2,0.1-0.3,0.2-0.5,0.3c-0.2,0.1-0.3,0.3-0.4,0.4c-0.1,0.2-0.1,0.4-0.1,0.6    c0,0.2,0,0.4,0.1,0.6c0.1,0.1,0.1,0.2,0.2,0.3c0.1,0.2,0.3,0.4,0.6,0.5c0.1,0,0.2,0.1,0.4,0.1c0.3,0,0.5,0,0.8-0.1    c0.1,0,0.2,0,0.2-0.1c0.2-0.1,0.3-0.2,0.5-0.3c0.2-0.1,0.3-0.3,0.4-0.4C59.6,30.5,59.6,30.3,59.6,30.2z"></path>			<path d="M49.6,39.2c-1.8-0.4-2.4,2.5-0.5,2.9C50.9,42.4,51.4,39.5,49.6,39.2z"></path>			<path d="M65.9,39.5c-1.6-0.3-2,2.1-0.5,2.4C67,42.3,67.5,39.8,65.9,39.5z"></path>			<path d="M63.8,51.2c0-0.4-0.2-0.9-0.4-1.2c-0.3-0.4-0.6-0.7-1-0.9c-0.4-0.2-0.9-0.3-1.3-0.3c0,0-0.1,0-0.1,0    c-0.5,0-0.9,0.2-1.3,0.4c-0.4,0.3-0.7,0.6-0.9,1c-0.2,0.4-0.3,0.9-0.3,1.4c0,0.5,0.2,0.9,0.4,1.3c0.3,0.4,0.6,0.7,1,0.9    c0.4,0.2,0.9,0.3,1.4,0.3c0.5,0,0.9-0.2,1.3-0.4c0.4-0.3,0.7-0.6,0.9-1c0,0,0-0.1,0-0.1C63.8,52.1,63.8,51.7,63.8,51.2z"></path>			<path d="M47.6,52.5c0-0.3-0.1-0.5-0.3-0.8c-0.1-0.1-0.2-0.2-0.3-0.3c-0.2-0.2-0.5-0.3-0.8-0.4c-0.2,0-0.4,0-0.6,0    c-0.2,0-0.4,0.1-0.6,0.2c-0.2,0.1-0.3,0.3-0.4,0.4c-0.1,0.2-0.2,0.4-0.3,0.6c0,0.1,0,0.3,0,0.4c0,0.3,0.1,0.5,0.3,0.8    c0.1,0.1,0.2,0.2,0.3,0.3c0.2,0.2,0.5,0.3,0.8,0.4c0.2,0,0.4,0,0.6,0c0.2,0,0.4-0.1,0.6-0.2c0.2-0.1,0.3-0.3,0.4-0.4    c0.1-0.2,0.2-0.4,0.3-0.6C47.6,52.8,47.6,52.6,47.6,52.5z"></path>			<path d="M73.2,41.8C69,41,67.8,47.5,72,48.3C76.2,49.1,77.4,42.6,73.2,41.8z"></path>			<path d="M74.1,52.1c0-0.3-0.1-0.6-0.3-0.9c-0.1-0.1-0.2-0.2-0.3-0.4c-0.2-0.2-0.5-0.4-0.9-0.4c-0.2-0.1-0.5,0-0.7,0    c-0.2,0-0.5,0.1-0.6,0.3c-0.2,0.1-0.4,0.3-0.5,0.5c-0.2,0.2-0.2,0.4-0.3,0.7c0,0.2,0,0.3,0,0.5c0,0.3,0.1,0.6,0.3,0.9    c0.1,0.1,0.2,0.2,0.3,0.4c0.2,0.2,0.5,0.4,0.9,0.4c0.2,0.1,0.5,0,0.7,0c0.2,0,0.5-0.1,0.6-0.3c0.2-0.1,0.4-0.3,0.5-0.5    c0.2-0.2,0.2-0.4,0.3-0.7C74.1,52.4,74.1,52.3,74.1,52.1z"></path>			<path d="M42,36.4c-1.2-0.2-1.6,1.7-0.4,1.9C42.9,38.5,43.3,36.6,42,36.4z"></path>			<path d="M58.1,38.1c0-0.2-0.1-0.3-0.2-0.5c-0.1-0.1-0.1-0.1-0.2-0.2c-0.1-0.1-0.3-0.2-0.5-0.2c-0.1,0-0.3,0-0.4,0    c-0.1,0-0.3,0.1-0.4,0.1c-0.1,0.1-0.2,0.2-0.3,0.3c-0.1,0.1-0.1,0.2-0.2,0.4c0,0.1,0,0.2,0,0.3c0,0.2,0.1,0.3,0.2,0.5l0.2,0.2    c0.1,0.1,0.3,0.2,0.5,0.2c0.1,0,0.3,0,0.4,0c0.1,0,0.3-0.1,0.4-0.1c0.1-0.1,0.2-0.2,0.3-0.3c0.1-0.1,0.1-0.2,0.2-0.4    C58.1,38.3,58.1,38.2,58.1,38.1z"></path>			<path d="M55.2,54.8c-1.4-0.3-1.9,2-0.4,2.2C56.2,57.3,56.6,55.1,55.2,54.8z"></path>			<path d="M53.4,29.8c-0.1-0.6-0.3-1.2-0.6-1.8c-0.2-0.2-0.4-0.5-0.6-0.7c-0.5-0.4-1.1-0.7-1.7-0.8c-0.5-0.1-1-0.1-1.4,0    c-0.5,0.1-0.9,0.2-1.3,0.5c-0.4,0.3-0.7,0.6-1,1c-0.3,0.4-0.5,0.8-0.6,1.3c0,0.3,0,0.7-0.1,1c0.1,0.6,0.3,1.2,0.6,1.8    c0.2,0.2,0.4,0.5,0.6,0.7c0.5,0.4,1.1,0.7,1.7,0.8c0.5,0.1,1,0.1,1.4,0c0.5-0.1,0.9-0.2,1.3-0.5c0.4-0.3,0.7-0.6,1-1    c0.3-0.4,0.5-0.8,0.6-1.3C53.3,30.4,53.3,30.1,53.4,29.8z"></path>		</g>		<g>			<path class="dark_planet_1" d="M67.7,30.4c0-0.2-0.1-0.4-0.2-0.6c-0.1-0.1-0.1-0.2-0.2-0.2c-0.2-0.1-0.4-0.2-0.6-0.3c-0.2,0-0.3,0-0.5,0    c-0.2,0-0.3,0.1-0.4,0.2c-0.1,0.1-0.2,0.2-0.3,0.3c-0.1,0.1-0.2,0.3-0.2,0.4c0,0.1,0,0.2,0,0.3c0,0.2,0.1,0.4,0.2,0.6    c0.1,0.1,0.1,0.2,0.2,0.2c0.2,0.1,0.4,0.2,0.6,0.3c0.2,0,0.3,0,0.5,0c0.2,0,0.3-0.1,0.4-0.2c0.1-0.1,0.2-0.2,0.3-0.3    c0.1-0.1,0.2-0.3,0.2-0.4L67.7,30.4z"></path>			<path class="dark_planet_1" d="M63,35c0-0.1-0.1-0.2-0.1-0.4c0,0-0.1-0.1-0.1-0.1c-0.1-0.1-0.2-0.1-0.3-0.2c-0.1,0-0.2,0-0.3,0    c-0.1,0-0.2,0-0.3,0.1c-0.1,0.1-0.1,0.1-0.2,0.2c-0.1,0.1-0.1,0.2-0.1,0.3l0,0.2c0,0.1,0.1,0.2,0.1,0.4c0,0,0.1,0.1,0.1,0.1    c0.1,0.1,0.2,0.1,0.3,0.2c0.1,0,0.2,0,0.3,0c0.1,0,0.2,0,0.3-0.1c0.1-0.1,0.1-0.1,0.2-0.2c0.1-0.1,0.1-0.2,0.1-0.3    C63,35.1,63,35,63,35z"></path>			<path class="dark_planet_1" d="M61.8,42.4c0-0.2-0.1-0.3-0.2-0.5c-0.1-0.1-0.1-0.1-0.2-0.2c-0.1-0.1-0.3-0.2-0.4-0.2c-0.1,0-0.3,0-0.4,0    c-0.1,0-0.2,0.1-0.3,0.1c-0.1,0.1-0.2,0.2-0.2,0.3c-0.1,0.1-0.1,0.2-0.1,0.3c0,0.1,0,0.2,0,0.3c0,0.2,0.1,0.3,0.2,0.5    c0.1,0.1,0.1,0.1,0.2,0.2c0.1,0.1,0.3,0.2,0.4,0.2c0.1,0,0.3,0,0.4,0c0.1,0,0.2-0.1,0.3-0.1c0.1-0.1,0.2-0.2,0.2-0.3    c0.1-0.1,0.1-0.2,0.1-0.3C61.8,42.6,61.8,42.5,61.8,42.4z"></path>			<path class="dark_planet_1" d="M54.3,43.4c-1.3-0.3-1.7,1.8-0.4,2.1C55.2,45.7,55.6,43.6,54.3,43.4z"></path>			<path class="dark_planet_1" d="M68.9,56.3c-0.1-0.1-0.2-0.2-0.3-0.3C68.5,56,68.3,56,68.1,56c0,0-0.1,0-0.1,0c-0.2,0-0.5,0.2-0.5,0.4    c-0.1,0.2-0.1,0.4,0,0.6c0,0,0,0,0,0.1c0,0,0,0,0,0c0,0.1,0.1,0.2,0.2,0.3c0.1,0.1,0.2,0.2,0.3,0.2c0.3,0.1,0.7,0,0.9-0.3    C69.1,57,69.1,56.6,68.9,56.3z"></path>			<path class="dark_planet_1" d="M55.3,49.4c0-0.1,0-0.2-0.1-0.3c-0.1-0.1-0.2-0.2-0.3-0.2c-0.1,0-0.1,0-0.2,0c-0.1,0-0.1,0-0.2,0.1    c-0.1,0.1-0.1,0.1-0.2,0.2c0,0.1-0.1,0.2-0.1,0.3c0,0,0,0.1,0,0.1c0,0,0,0.1,0,0.1c0,0.1,0.1,0.1,0.1,0.2c0,0,0.1,0.1,0.1,0.1    c0.1,0,0.1,0.1,0.2,0.1c0,0,0.1,0,0.1,0c0,0,0.1,0,0.1,0c0.1,0,0.2-0.1,0.3-0.3c0,0,0-0.1,0-0.1C55.3,49.6,55.4,49.5,55.3,49.4z"></path>			<path class="dark_planet_1" d="M59.5,69.8c-0.2-0.9-1.6-0.4-1.3,0.4C58.5,70.9,59.7,70.6,59.5,69.8z"></path>			<path class="dark_planet_1" d="M67.3,65c0-0.1,0-0.2-0.1-0.3c-0.1-0.1-0.2-0.2-0.4-0.3c-0.1,0-0.2,0-0.2,0c-0.1,0-0.2,0-0.2,0.1    c-0.1,0-0.1,0.1-0.2,0.2c-0.1,0.1-0.1,0.1-0.1,0.2c0,0.1,0,0.1,0,0.2c0,0.1,0,0.2,0.1,0.3c0.1,0.1,0.2,0.2,0.4,0.3    c0.1,0,0.2,0,0.2,0c0.1,0,0.2,0,0.2-0.1c0.1,0,0.1-0.1,0.2-0.2c0.1-0.1,0.1-0.1,0.1-0.2C67.3,65.1,67.3,65.1,67.3,65z"></path>			<path class="dark_planet_1" d="M48.8,76.8c0-0.1,0-0.2,0-0.3c0-0.1,0-0.2-0.1-0.2c0-0.1-0.1-0.2-0.2-0.3c-0.1-0.1-0.1-0.1-0.3-0.2    c0,0,0,0,0,0c0,0,0,0,0,0c-0.2-0.1-0.3-0.1-0.5-0.1c-0.2,0-0.3,0.1-0.4,0.2c-0.1,0.1-0.2,0.2-0.3,0.4c-0.1,0.2-0.1,0.3-0.1,0.5    c0,0,0,0,0,0.1c0,0,0,0,0,0c0,0.1,0,0.2,0.1,0.2c0,0,0,0.1,0.1,0.1c0,0.1,0.1,0.1,0.1,0.2c0.1,0.1,0.2,0.2,0.3,0.2    c0.1,0,0.2,0.1,0.2,0.1c0,0,0,0,0,0c0,0,0,0,0,0c0.1,0,0.2,0,0.4,0c0.1,0,0.2-0.1,0.3-0.1c0.1-0.1,0.1-0.1,0.2-0.2    C48.7,77.1,48.8,77,48.8,76.8C48.8,76.8,48.8,76.8,48.8,76.8z"></path>			<path class="dark_planet_1" d="M49.8,67.2c0-0.2-0.1-0.4-0.2-0.5c-0.1-0.1-0.1-0.1-0.2-0.2c-0.1-0.1-0.3-0.2-0.5-0.2c-0.1,0-0.3,0-0.4,0    c-0.1,0-0.3,0.1-0.4,0.2c-0.1,0.1-0.2,0.2-0.3,0.3c-0.1,0.1-0.1,0.2-0.2,0.4c0,0.1,0,0.2,0,0.3c0,0.2,0.1,0.4,0.2,0.5    c0.1,0.1,0.1,0.1,0.2,0.2c0.1,0.1,0.3,0.2,0.5,0.2c0.1,0,0.3,0,0.4,0c0.1,0,0.3-0.1,0.4-0.2c0.1-0.1,0.2-0.2,0.3-0.3    c0.1-0.1,0.1-0.2,0.2-0.4C49.7,67.4,49.8,67.3,49.8,67.2z"></path>			<path class="dark_planet_1" d="M41.8,49.8c0-0.1-0.1-0.2-0.1-0.4c0,0-0.1-0.1-0.1-0.1c-0.1-0.1-0.2-0.1-0.3-0.2c-0.1,0-0.2,0-0.3,0    c-0.1,0-0.2,0-0.3,0.1c-0.1,0.1-0.1,0.1-0.2,0.2c-0.1,0.1-0.1,0.2-0.1,0.3l0,0.2c0,0.1,0.1,0.2,0.1,0.4c0,0,0.1,0.1,0.1,0.1    c0.1,0.1,0.2,0.1,0.3,0.2c0.1,0,0.2,0,0.3,0c0.1,0,0.2,0,0.3-0.1c0.1-0.1,0.1-0.1,0.2-0.2c0.1-0.1,0.1-0.2,0.1-0.3    C41.8,49.9,41.8,49.8,41.8,49.8z"></path>			<path class="dark_planet_1" d="M66.8,71.1c0-0.2-0.1-0.3-0.2-0.4c-0.2-0.2-0.5-0.4-0.7-0.5c-0.3,0-0.6,0-0.9,0.2c-0.2,0.2-0.4,0.4-0.5,0.7    c0,0.1,0,0.1,0,0.2c-0.1,0.3,0,0.6,0.2,0.9c0.2,0.2,0.5,0.4,0.7,0.5c0.3,0,0.6,0,0.9-0.2c0.1-0.1,0.1-0.1,0.2-0.2    c0.1-0.2,0.2-0.3,0.3-0.5l0-0.2C66.8,71.4,66.8,71.2,66.8,71.1z"></path>			<path class="dark_planet_1" d="M73,61.1c0-0.1-0.1-0.2-0.1-0.3l0,0c0-0.1-0.1-0.1-0.1-0.2c-0.1-0.1-0.2-0.1-0.3-0.1c-0.1,0-0.1,0-0.2,0    c-0.1,0-0.2,0-0.3,0c0,0,0,0,0,0c-0.1,0-0.1,0.1-0.2,0.1c-0.1,0.1-0.2,0.1-0.2,0.2c0,0.1-0.1,0.1-0.1,0.2c0,0.1-0.1,0.2,0,0.3    c0,0,0,0,0,0c0,0.1,0.1,0.3,0.1,0.4c0.1,0.1,0.2,0.2,0.3,0.3c0,0,0,0,0,0c0.1,0,0.1,0,0.2,0.1c0.1,0,0.2,0,0.3,0    c0.1,0,0.1,0,0.2-0.1c0.1,0,0.2-0.1,0.2-0.2c0.1-0.1,0.1-0.2,0.2-0.4C73,61.3,73,61.2,73,61.1z"></path>			<path class="dark_planet_1" d="M62.9,57.6c0-0.1,0-0.1,0-0.2c0-0.1-0.1-0.2-0.2-0.3c-0.1-0.1-0.1-0.2-0.2-0.2c0,0-0.1,0-0.1-0.1    c-0.1-0.1-0.3-0.1-0.4-0.1c-0.2,0-0.3,0.1-0.4,0.1c-0.1,0-0.1,0.1-0.2,0.1c-0.1,0.1-0.2,0.3-0.2,0.4c0,0.1,0,0.2,0,0.3    c0,0.1,0.1,0.2,0.1,0.3c0.1,0.1,0.2,0.2,0.3,0.3c0.1,0.1,0.3,0.1,0.4,0.1c0,0,0.1,0,0.1,0c0.1,0,0.1,0,0.2,0    c0.1,0,0.2-0.1,0.3-0.2c0.1,0,0.1-0.1,0.1-0.2c0.1-0.1,0.1-0.2,0.1-0.3C62.9,57.7,62.9,57.6,62.9,57.6z"></path>			<path class="dark_planet_1" d="M71.7,36.5c-1-0.2-1.3,1.4-0.3,1.5C72.4,38.2,72.7,36.6,71.7,36.5z"></path>			<path class="dark_planet_1" d="M48.2,60.5c0-0.1,0-0.2,0-0.2l-0.1-0.1c0,0,0,0-0.1-0.1c-0.1-0.1-0.1-0.1-0.2-0.1c0,0,0,0-0.1,0    c-0.1,0-0.2-0.1-0.3-0.1c-0.1,0-0.2,0-0.3,0.1c-0.1,0.1-0.1,0.1-0.2,0.2c0,0.1-0.1,0.2-0.1,0.3c0,0,0,0,0,0.1c0,0,0,0,0,0    c0,0,0,0.1,0,0.1c0,0.1,0.1,0.2,0.2,0.3c0,0,0.1,0.1,0.1,0.1c0.1,0,0.1,0.1,0.2,0.1c0,0,0.1,0,0.1,0l0,0c0.1,0,0.2,0,0.2-0.1    c0.1-0.1,0.1-0.1,0.2-0.2l0,0l0,0C48.2,60.6,48.2,60.5,48.2,60.5z"></path>			<path class="dark_planet_1" d="M37,73.2c-1.5-0.3-2,2.1-0.5,2.4C38.1,75.9,38.6,73.5,37,73.2z"></path>			<path class="dark_planet_1" d="M43.1,64.8C43,64.7,43,64.7,43.1,64.8c-0.7-0.2-0.9,0.9-0.3,1c0,0,0.1,0,0.1,0C43.5,65.8,43.7,65,43.1,64.8z    "></path>			<path class="dark_planet_1" d="M54.4,68.5c-0.2-0.1-0.4-0.2-0.6-0.1c-0.2,0-0.4,0.2-0.5,0.4c-0.1,0.2,0,0.5,0.2,0.6    c0.1,0.1,0.2,0.2,0.4,0.2c0.1,0,0.1,0,0.2,0c0.3,0,0.6-0.1,0.7-0.4C54.8,68.9,54.7,68.6,54.4,68.5z"></path>			<path class="dark_planet_1" d="M66,46.5c-1-0.2-1.3,1.3-0.3,1.5C66.7,48.2,67,46.7,66,46.5z"></path>		</g>	</g>	<g>		<path class="dark_planet_2" d="M78.8,64.5c-0.5,0.8-1.5,1-2.4,0.9c-0.2,0-0.5,0-0.8-0.1c-1.4-0.2-2.9-0.6-4.3-0.9   c-12.9-2.8-25.6-6.6-37.9-11.5c-3.1-1.3-6.3-2.6-9.4-4c-0.7-0.3-1.6-0.7-2.5-1c-1.5-0.6-3-1.4-3.8-2.6c-1.1-1.6-0.3-3.5,1.4-4.3   c1.3-0.6,2.8-0.4,4.1,0.2c-0.1,0.1-0.1,0.3-0.2,0.4c-0.9-0.3-1.9-0.5-2.9-0.3c-1.9,0.5-2.8,2.4-1.3,3.9c0.8,0.8,1.8,1.2,2.8,1.7   c0.1,0.1,0.3,0.1,0.4,0.2c1.4,0.6,2.7,1.3,4.1,1.9c5.5,2.4,11.1,4.6,16.8,6.6c5.8,2,11.7,3.8,17.7,5.4c2.9,0.8,5.8,1.5,8.8,2.1   c1.5,0.3,2.9,0.6,4.4,0.9c0.7,0.1,1.3,0.3,2,0.4c0,0,0,0,0.1,0c0.4,0.1,0.7,0.1,1.1,0.1c1.7-0.8,1.6-1.6-0.2-2.3   c0.1-0.2,0.1-0.4,0.2-0.5C78.6,61.9,79.7,63.1,78.8,64.5z"></path>		<path d="M85.5,69.5c-1.3,1.3-3.2,1.6-5,1.5c-2.7-0.2-5.3-0.6-8-1.1c-1.6-0.3-3.2-0.6-4.8-1c-4.3-0.9-8.6-1.9-12.8-3.1   c-8.5-2.4-16.9-5.5-25-9.2c-2.8-1.3-5.6-2.7-8.4-4.2c-1.1-0.6-2.2-1.2-3.4-1.8c-2.4-1.3-5.2-3.1-5.8-5.9c-0.7-2.9,1.4-5.5,4.1-6.4   c2.5-0.9,5.3-0.3,7.8,0.9c-0.1,0.3-0.3,0.6-0.4,0.9c-2.8-1.1-5.8-2-8.5,0c-1.5,1.1-2.4,2.9-1.7,4.7c0.6,1.5,2,2.6,3.4,3.5   c1.5,0.9,3,1.8,4.5,2.6c4.6,2.5,9.5,4.7,14.4,6.7c6.7,2.8,13.6,5.1,20.6,7c5.7,1.5,11.4,2.7,17.3,3.6c1.3,0.2,2.7,0.4,4.1,0.6   c1.7,0.2,3.7,0.7,5.3,0.1c2.1-0.8,1.8-2.7,0.6-4.2c-1.6-2-3.7-3.5-5.9-4.8c0.1-0.3,0.2-0.7,0.3-1c0.1-0.3,0.1-0.6,0.2-0.8   c1.3,0.6,2.5,1.4,3.6,2.3c1.6,1.2,3.4,2.8,4.2,4.6C86.9,66.6,86.7,68.3,85.5,69.5z"></path>	</g>	<g>		<path class="dark_planet_1" d="M96.6,75.8c-3,5-9,5.8-14.4,6c-6.7,0.2-13.4-0.9-19.8-2.7c-0.8-0.2-1.6-0.4-2.3-0.7   c-5.7-1.7-11.3-3.8-16.9-5.9c-5.9-2.3-11.8-4.6-17.7-6.9c-0.9-0.4-1.9-0.7-2.8-1.1c-5.6-2.2-11.6-4.3-15.9-8.7   c-3.5-3.5-5.9-8.8-4.7-13.8c1.2-4.8,5.3-8.1,9.8-9.6c5.4-1.8,11.2-1,16.7,0.1c-0.2,0.2-0.3,0.4-0.5,0.6   c-5.8-0.9-11.8-1.7-17.3,0.7C5.2,36.2,1.5,41.6,3,47.7c1.4,5.4,5.7,9.3,10.4,11.8c3.6,1.9,7.4,3.4,11.3,4.8   c1.7,0.6,3.5,1.3,5.2,1.9c10.5,4,21.1,8.6,32,11.5c1.2,0.3,2.4,0.6,3.6,0.9c6,1.4,12.1,2.1,18.2,1.8c5.6-0.3,11.3-1.9,12.8-7.9   c1.4-5.3-1.2-10.5-5.1-14c-3.5-3.2-7.9-5.2-12.3-6.8c0-0.4,0-0.8,0-1.1c5.7,2,11.3,4.4,15.3,9.2C98.2,64.2,99.7,70.6,96.6,75.8z"></path>		<path class="dark_planet_3" d="M91.5,73.7c-2.6,3.5-7.2,3.9-11.2,3.5c-4.6-0.4-9.1-1.2-13.6-2.1c-1.2-0.2-2.4-0.5-3.6-0.8   c-11.6-2.5-23-6.1-33.9-10.8c-2-0.8-3.9-1.7-5.8-2.7c-2.9-1.5-5.8-3.1-8.4-5.1c-3.4-2.5-7.7-5.9-8.1-10.5c-0.3-4.1,2.9-7.5,6.5-9   c3.9-1.6,8.5-1.1,12.5,0c-0.1,0.2-0.2,0.4-0.3,0.5c-4.5-0.8-9.3-1.6-13.5,0.9c-2.1,1.3-4,3.3-4.4,5.8c-0.5,2.6,0.7,5.1,2.3,7   c3.1,3.6,7.4,6.3,11.5,8.6c0.5,0.3,1,0.5,1.5,0.8c3.8,2,7.9,3.7,11.9,5.2c9.8,3.8,20,6.8,30.3,8.9c0.8,0.2,1.6,0.3,2.4,0.5   c4.1,0.8,8.3,1.5,12.4,1.9c4.3,0.4,9.3,0,11.5-4.3c2.3-4.4,0.7-9.3-2.6-12.6c-2.7-2.7-6.2-4.4-9.8-5.6c0-0.2,0-0.5,0.1-0.7   c4.3,1.7,8.6,3.8,11.4,7.6C93.3,64.5,94.4,69.9,91.5,73.7z"></path>	</g>	<polygon class="dark_planet_4" points="64.5,89.5 62,88.6 59.9,90.1 60,87.5 57.9,85.9 60.4,85.2 61.3,82.7 62.7,84.9 65.3,84.9 63.7,87  "></polygon>	<polygon class="dark_planet_4" points="78.2,21.5 76.1,17.8 71.9,17.4 74.8,14.4 73.9,10.3 77.7,12 81.3,9.9 80.8,14.1 83.9,16.8 79.8,17.6    "></polygon>	<polygon class="dark_planet_4" points="30.8,22.8 27.8,21.9 25.4,23.9 25.3,20.8 22.7,19.1 25.7,18.1 26.5,15.1 28.4,17.5 31.4,17.4   29.7,19.9  "></polygon></g></svg>